<svg width="1203" height="265" viewBox="0 0 1203 265" fill="none" xmlns="http://www.w3.org/2000/svg">
<path opacity="0.3" fill-rule="evenodd" clip-rule="evenodd" d="M613.392 22.2002C737.399 24.9781 881.797 7.05692 980.588 20.9101C1081.02 34.9929 1030.98 64.6828 1071.71 86.4687C1106.82 105.251 1198.91 119.892 1202.67 139.709C1206.75 161.176 1172.79 183.723 1093.19 199.648C1014.16 215.46 881.878 215.435 776.529 224.969C641.673 237.173 529.657 272.726 387.799 263.485C242.391 254.012 280.85 212.639 208.193 187.943C156.366 170.327 55.4308 158.834 23.6752 139.721C-11.1427 118.764 -3.71605 96.813 21.2081 75.399C51.4513 49.4151 51.3897 14.8396 182.763 3.0377C317.914 -9.10354 463.664 18.846 613.392 22.2002Z" fill="#CA3502"/>
<path d="M446.187 157L430.887 130C429.487 130.2 426.587 130.3 422.187 130.3V157H403.887V87H422.187V114.4C427.587 114.4 430.987 114.033 432.387 113.3C433.853 112.567 434.987 111.233 435.787 109.3C436.587 107.3 437.553 103.9 438.687 99.1C439.887 94.3 442.487 90.7 446.487 88.3C450.553 85.9 456.387 85.5 463.987 87.1V99.4C459.253 99.0667 456.42 100.733 455.487 104.4C453.087 113.133 450.22 119.333 446.887 123C448.62 125.667 451.753 130.6 456.287 137.8C460.82 144.933 464.353 150.433 466.887 154.3V157H446.187ZM490.852 137.5L493.252 132.5L469.152 89.3V87H489.252L502.552 113.9H503.152L514.952 87H534.352V88.9L509.052 140.5C507.186 144.7 505.286 148.067 503.352 150.6C501.419 153.133 499.086 155.133 496.352 156.6C493.686 158 490.552 158.567 486.952 158.3C483.352 158.1 479.152 157.1 474.352 155.3L476.752 142.4C479.952 143.8 482.686 144.2 484.952 143.6C487.286 143 489.252 140.967 490.852 137.5ZM541.191 87H599.391V157H581.091V103.5H559.491V157H541.191V87ZM656.634 120.9L619.834 157.2H614.434V87H632.734V121.2L669.234 86.7H674.934V157H656.634V120.9ZM701.522 103H684.322V87H736.322V103H719.222V157H701.522V103ZM763.484 87V107.9H776.384C779.984 107.9 783.284 108.467 786.284 109.6C789.284 110.667 791.75 112.167 793.684 114.1C795.684 115.967 797.35 118.133 798.684 120.6C800.084 123.067 800.917 125.667 801.184 128.4C801.517 131.067 801.517 133.767 801.184 136.5C800.917 139.167 800.084 141.733 798.684 144.2C797.35 146.667 795.684 148.867 793.684 150.8C791.75 152.667 789.284 154.167 786.284 155.3C783.284 156.433 779.984 157 776.384 157H745.684V87H763.484ZM776.384 124H763.484V140.9H776.384C778.317 140.9 779.95 140.333 781.284 139.2C782.617 138 783.417 136.567 783.684 134.9C783.95 133.233 783.917 131.6 783.584 130C783.25 128.333 782.417 126.933 781.084 125.8C779.817 124.6 778.25 124 776.384 124Z" fill="black"/>
</svg>
