<svg width="788" height="199" viewBox="0 0 788 199" fill="none" xmlns="http://www.w3.org/2000/svg">
<path opacity="0.3" fill-rule="evenodd" clip-rule="evenodd" d="M412.079 20.2144C497.874 23.1751 593.32 9.89004 660.902 25.1207C732.148 41.1772 732.732 69.9706 745.938 95.4551C762.724 127.847 831.338 167.703 746.307 189.931C661.029 212.223 527.277 186.93 412.079 182.728C321.76 179.433 226.841 183.88 154.253 168.335C71.9067 150.7 15.2981 124.499 4.55678 95.4551C-7.34623 63.2696 -1.79478 23.2559 94.0541 5.5594C187.537 -11.7003 301.245 16.3896 412.079 20.2144Z" fill="#1736D2"/>
<path d="M284.921 95.5C284.921 100.833 283.238 105.2 279.871 108.6C276.538 111.967 272.221 113.65 266.921 113.65C264.554 113.65 262.304 113.267 260.171 112.5C258.071 111.733 256.171 110.617 254.471 109.15C252.804 107.683 251.471 105.783 250.471 103.45C249.504 101.083 249.021 98.4333 249.021 95.5C249.021 91.6333 249.904 88.3 251.671 85.5C253.438 82.6667 255.654 80.6 258.321 79.3C261.021 77.9667 263.938 77.3 267.071 77.3C269.338 77.3 271.521 77.7 273.621 78.5C275.754 79.2667 277.654 80.3833 279.321 81.85C281.021 83.3167 282.371 85.2333 283.371 87.6C284.404 89.9333 284.921 92.5667 284.921 95.5ZM258.171 95.5C258.171 98.4667 259.038 100.8 260.771 102.5C262.504 104.167 264.571 105 266.971 105C269.338 105 271.388 104.167 273.121 102.5C274.888 100.8 275.771 98.4667 275.771 95.5C275.771 92.5333 274.904 90.2167 273.171 88.55C271.438 86.85 269.404 86 267.071 86C264.604 86 262.504 86.8333 260.771 88.5C259.038 90.1333 258.171 92.4667 258.171 95.5ZM295.831 86H287.231V78H313.231V86H304.681V113H295.831V86ZM317.912 78H347.012V113H337.862V86.25H327.062V113H317.912V78ZM363.733 112.95H354.583V77.95C354.617 77.95 357.183 77.95 362.283 77.95C367.417 77.9167 370 77.9167 370.033 77.95C374 77.95 377.1 79.2667 379.333 81.9C381.567 84.5 382.65 87.5667 382.583 91.1C382.583 94.5667 381.467 97.5667 379.233 100.1C377.033 102.633 373.967 103.9 370.033 103.9H363.733V112.95ZM363.583 95.95H370.033C371.167 95.95 372.083 95.45 372.783 94.45C373.483 93.4167 373.833 92.2167 373.833 90.85C373.833 89.5167 373.5 88.3667 372.833 87.4C372.167 86.4 371.233 85.9 370.033 85.9H363.583V95.95ZM405.888 108.65H392.788L390.788 113H381.238V111.75L397.288 77.65H401.488L417.388 111.75V113H407.938L405.888 108.65ZM399.338 92.55L395.738 101H402.988L399.338 92.55ZM447.148 88.6C447.148 89.7 446.881 90.8167 446.348 91.95C445.814 93.05 445.114 93.95 444.248 94.65C445.648 95.35 446.714 96.3667 447.448 97.7C448.214 99.0333 448.598 100.517 448.598 102.15C448.598 105.25 447.614 107.8 445.648 109.8C443.714 111.8 440.998 112.8 437.498 112.8H420.648V77.85H436.098C439.364 77.85 442.014 78.8333 444.048 80.8C446.114 82.7667 447.148 85.3667 447.148 88.6ZM435.448 85.8H429.798V91.65H435.448C436.281 91.65 436.931 91.3833 437.398 90.85C437.864 90.3167 438.114 89.6667 438.148 88.9C438.181 88.0667 437.948 87.35 437.448 86.75C436.981 86.1167 436.314 85.8 435.448 85.8ZM436.798 99.05H429.798V104.85H436.848C438.448 104.85 439.348 103.95 439.548 102.15C439.614 101.317 439.381 100.6 438.848 100C438.348 99.3667 437.664 99.05 436.798 99.05ZM475.389 94.95L456.989 113.1H454.289V78H463.439V95.1L481.689 77.85H484.539V113H475.389V94.95ZM497.833 86H489.233V78H515.233V86H506.683V113H497.833V86ZM528.814 78V88.45H535.264C537.064 88.45 538.714 88.7333 540.214 89.3C541.714 89.8333 542.947 90.5833 543.914 91.55C544.914 92.4833 545.747 93.5667 546.414 94.8C547.114 96.0333 547.531 97.3333 547.664 98.7C547.831 100.033 547.831 101.383 547.664 102.75C547.531 104.083 547.114 105.367 546.414 106.6C545.747 107.833 544.914 108.933 543.914 109.9C542.947 110.833 541.714 111.583 540.214 112.15C538.714 112.717 537.064 113 535.264 113H519.914V78H528.814ZM535.264 96.5H528.814V104.95H535.264C536.231 104.95 537.047 104.667 537.714 104.1C538.381 103.5 538.781 102.783 538.914 101.95C539.047 101.117 539.031 100.3 538.864 99.5C538.697 98.6667 538.281 97.9667 537.614 97.4C536.981 96.8 536.197 96.5 535.264 96.5Z" fill="black"/>
</svg>
