<svg width="3076" height="200" viewBox="0 0 3076 200" fill="none" xmlns="http://www.w3.org/2000/svg">
<path d="M0 0H3076V200H0V0Z" fill="black"/>
<path d="M2715.95 65.2H2695.31V46H2757.71V65.2H2737.19V130H2715.95V65.2Z" fill="white"/>
<path d="M2641.62 106.6L2644.5 100.6L2615.58 48.76V46H2639.7L2655.66 78.28H2656.38L2670.54 46H2693.82V48.28L2663.46 110.2C2661.22 115.24 2658.94 119.28 2656.62 122.32C2654.3 125.36 2651.5 127.76 2648.22 129.52C2645.02 131.2 2641.26 131.88 2636.94 131.56C2632.62 131.32 2627.58 130.12 2621.82 127.96L2624.7 112.48C2628.54 114.16 2631.82 114.64 2634.54 113.92C2637.34 113.2 2639.7 110.76 2641.62 106.6Z" fill="white"/>
<path d="M2561.91 64.84L2558.07 101.44C2557.67 106.64 2556.39 110.12 2554.23 111.88H2578.95V64.84H2561.91ZM2524.59 111.4H2527.71C2530.83 111.32 2532.95 110.56 2534.07 109.12C2535.19 107.6 2535.99 104.8 2536.47 100.72L2542.83 46H2600.79V111.4H2609.19V139.84H2591.43V130H2541.27V139.84H2524.59V111.4Z" fill="white"/>
<path d="M2476.15 106.6L2479.03 100.6L2450.11 48.76V46H2474.23L2490.19 78.28H2490.91L2505.07 46H2528.35V48.28L2497.99 110.2C2495.75 115.24 2493.47 119.28 2491.15 122.32C2488.83 125.36 2486.03 127.76 2482.75 129.52C2479.55 131.2 2475.79 131.88 2471.47 131.56C2467.15 131.32 2462.11 130.12 2456.35 127.96L2459.23 112.48C2463.07 114.16 2466.35 114.64 2469.07 113.92C2471.87 113.2 2474.23 110.76 2476.15 106.6Z" fill="white"/>
<path d="M2415.43 94.36H2400.07V110.8H2415.43C2418.23 110.8 2420.39 110 2421.91 108.4C2423.51 106.72 2424.31 104.76 2424.31 102.52C2424.31 100.2 2423.51 98.28 2421.91 96.76C2420.39 95.16 2418.23 94.36 2415.43 94.36ZM2400.07 65.2V76.12H2415.55C2425.31 76.12 2432.75 78.56 2437.87 83.44C2443.07 88.32 2445.67 94.64 2445.67 102.4C2445.67 110.24 2443.03 116.8 2437.75 122.08C2432.55 127.36 2425.15 130 2415.55 130H2378.59V46H2438.95V65.2H2400.07Z" fill="white"/>
<path d="M2333.65 46V65.08H2303.17V77.08H2331.25V96.28H2303.17V109.96H2334.73V130H2281.21V46H2333.65Z" fill="white"/>
<path d="M2223.09 65.56L2219.85 104.08C2219.13 112.24 2217.61 118.28 2215.29 122.2C2213.05 126.12 2209.49 128.68 2204.61 129.88C2199.81 131 2193.45 130.88 2185.53 129.52L2185.89 113.8C2190.53 114.2 2193.57 113.72 2195.01 112.36C2196.53 111 2197.53 108 2198.01 103.36L2203.89 46H2263.17V130H2241.33V65.56H2223.09Z" fill="white"/>
<path d="M2157.54 119.56H2126.1L2121.3 130H2098.38V127L2136.9 45.1602H2146.98L2185.14 127V130H2162.46L2157.54 119.56ZM2141.82 80.9202L2133.18 101.2H2150.58L2141.82 80.9202Z" fill="white"/>
<path d="M2092.5 71.4396C2092.5 74.0796 2091.86 76.7596 2090.58 79.4796C2089.3 82.1196 2087.62 84.2796 2085.54 85.9596C2088.9 87.6396 2091.46 90.0796 2093.22 93.2796C2095.06 96.4796 2095.98 100.04 2095.98 103.96C2095.98 111.4 2093.62 117.52 2088.9 122.32C2084.26 127.12 2077.74 129.52 2069.34 129.52H2028.9V45.6396H2065.98C2073.82 45.6396 2080.18 47.9996 2085.06 52.7196C2090.02 57.4396 2092.5 63.6796 2092.5 71.4396ZM2064.42 64.7196H2050.86V78.7596H2064.42C2066.42 78.7596 2067.98 78.1196 2069.1 76.8396C2070.22 75.5596 2070.82 73.9996 2070.9 72.1596C2070.98 70.1596 2070.42 68.4396 2069.22 66.9996C2068.1 65.4796 2066.5 64.7196 2064.42 64.7196ZM2067.66 96.5196H2050.86V110.44H2067.78C2071.62 110.44 2073.78 108.28 2074.26 103.96C2074.42 101.96 2073.86 100.24 2072.58 98.7996C2071.38 97.2796 2069.74 96.5196 2067.66 96.5196Z" fill="white"/>
<path d="M1988.84 86.6796L1944.68 130.24H1938.2V45.9996H1960.16V87.0396L2003.96 45.6396H2010.8V130H1988.84V86.6796Z" fill="white"/>
<path d="M1885.2 65.2H1864.56V46H1926.96V65.2H1906.44V130H1885.2V65.2Z" fill="white"/>
<path d="M1775.79 88.1202C1775.79 81.1602 1776.99 74.8802 1779.39 69.2802C1781.87 63.6802 1785.15 59.1602 1789.23 55.7202C1793.31 52.2802 1797.87 49.6802 1802.91 47.9202C1807.95 46.0802 1813.23 45.1602 1818.75 45.1602C1824.83 45.1602 1830.55 46.2002 1835.91 48.2802C1841.35 50.3602 1846.15 53.8802 1850.31 58.8402C1854.55 63.8002 1857.19 69.8402 1858.23 76.9602H1837.11C1834.31 68.9602 1828.19 64.9602 1818.75 64.9602C1812.43 64.9602 1807.35 67.0802 1803.51 71.3202C1799.67 75.4802 1797.75 81.0402 1797.75 88.0002C1797.75 94.2402 1799.67 99.6002 1803.51 104.08C1807.43 108.56 1812.51 110.8 1818.75 110.8C1823.47 110.8 1827.47 109.68 1830.75 107.44C1834.03 105.2 1836.23 101.88 1837.35 97.4802H1858.47C1857.43 105.08 1854.83 111.48 1850.67 116.68C1846.51 121.8 1841.71 125.44 1836.27 127.6C1830.91 129.76 1825.07 130.84 1818.75 130.84C1813.31 130.84 1808.03 129.92 1802.91 128.08C1797.87 126.24 1793.31 123.6 1789.23 120.16C1785.15 116.72 1781.87 112.24 1779.39 106.72C1776.99 101.12 1775.79 94.9202 1775.79 88.1202Z" fill="white"/>
<path d="M1764.82 46V65.08H1734.34V77.08H1762.42V96.28H1734.34V109.96H1765.9V130H1712.38V46H1764.82Z" fill="white"/>
<path d="M1676.46 87.8796C1676.46 78.0396 1670.5 72.8796 1658.58 72.3996V103.48C1670.5 102.68 1676.46 97.4796 1676.46 87.8796ZM1620.9 87.8796C1620.9 97.4796 1626.86 102.68 1638.78 103.48V72.3996C1626.86 72.8796 1620.9 78.0396 1620.9 87.8796ZM1638.54 130.24V121.96C1627.02 121.56 1617.54 118.48 1610.1 112.72C1602.66 106.88 1598.94 98.5996 1598.94 87.8796C1598.94 77.1596 1602.62 68.8796 1609.98 63.0396C1617.42 57.1996 1626.9 54.0396 1638.42 53.5596V45.6396H1658.94V53.5596C1670.86 54.0396 1680.42 57.0796 1687.62 62.6796C1694.82 68.2796 1698.42 76.6796 1698.42 87.8796C1698.42 95.4796 1696.58 101.88 1692.9 107.08C1689.22 112.2 1684.5 115.92 1678.74 118.24C1673.06 120.48 1666.42 121.72 1658.82 121.96V130.24H1638.54Z" fill="white"/>
<path d="M1540.08 119.56H1508.64L1503.84 130H1480.92V127L1519.44 45.1602H1529.52L1567.68 127V130H1545L1540.08 119.56ZM1524.36 80.9202L1515.72 101.2H1533.12L1524.36 80.9202Z" fill="white"/>
<path d="M1473.32 130H1451.36V96.4H1425.32V130H1403.36V46H1425.32V76.36H1451.36V46H1473.32V130Z" fill="white"/>
<path d="M1321.65 65.2H1301.01V46H1363.41V65.2H1342.89V130H1321.65V65.2Z" fill="white"/>
<path d="M1247.32 106.6L1250.2 100.6L1221.28 48.76V46H1245.4L1261.36 78.28H1262.08L1276.24 46H1299.52V48.28L1269.16 110.2C1266.92 115.24 1264.64 119.28 1262.32 122.32C1260 125.36 1257.2 127.76 1253.92 129.52C1250.72 131.2 1246.96 131.88 1242.64 131.56C1238.32 131.32 1233.28 130.12 1227.52 127.96L1230.4 112.48C1234.24 114.16 1237.52 114.64 1240.24 113.92C1243.04 113.2 1245.4 110.76 1247.32 106.6Z" fill="white"/>
<path d="M1167.62 64.84L1163.78 101.44C1163.38 106.64 1162.1 110.12 1159.94 111.88H1184.66V64.84H1167.62ZM1130.3 111.4H1133.42C1136.54 111.32 1138.66 110.56 1139.78 109.12C1140.9 107.6 1141.7 104.8 1142.18 100.72L1148.54 46H1206.5V111.4H1214.9V139.84H1197.14V130H1146.98V139.84H1130.3V111.4Z" fill="white"/>
<path d="M1081.85 106.6L1084.73 100.6L1055.81 48.76V46H1079.93L1095.89 78.28H1096.61L1110.77 46H1134.05V48.28L1103.69 110.2C1101.45 115.24 1099.17 119.28 1096.85 122.32C1094.53 125.36 1091.73 127.76 1088.45 129.52C1085.25 131.2 1081.49 131.88 1077.17 131.56C1072.85 131.32 1067.81 130.12 1062.05 127.96L1064.93 112.48C1068.77 114.16 1072.05 114.64 1074.77 113.92C1077.57 113.2 1079.93 110.76 1081.85 106.6Z" fill="white"/>
<path d="M1021.13 94.36H1005.77V110.8H1021.13C1023.93 110.8 1026.09 110 1027.61 108.4C1029.21 106.72 1030.01 104.76 1030.01 102.52C1030.01 100.2 1029.21 98.28 1027.61 96.76C1026.09 95.16 1023.93 94.36 1021.13 94.36ZM1005.77 65.2V76.12H1021.25C1031.01 76.12 1038.45 78.56 1043.57 83.44C1048.77 88.32 1051.37 94.64 1051.37 102.4C1051.37 110.24 1048.73 116.8 1043.45 122.08C1038.25 127.36 1030.85 130 1021.25 130H984.293V46H1044.65V65.2H1005.77Z" fill="white"/>
<path d="M939.35 46V65.08H908.87V77.08H936.95V96.28H908.87V109.96H940.43V130H886.91V46H939.35Z" fill="white"/>
<path d="M828.79 65.56L825.55 104.08C824.83 112.24 823.31 118.28 820.99 122.2C818.75 126.12 815.19 128.68 810.31 129.88C805.51 131 799.15 130.88 791.23 129.52L791.59 113.8C796.23 114.2 799.27 113.72 800.71 112.36C802.23 111 803.23 108 803.71 103.36L809.59 46H868.87V130H847.03V65.56H828.79Z" fill="white"/>
<path d="M763.248 119.56H731.808L727.008 130H704.088V127L742.608 45.1602H752.688L790.848 127V130H768.168L763.248 119.56ZM747.528 80.9202L738.888 101.2H756.288L747.528 80.9202Z" fill="white"/>
<path d="M698.207 71.4396C698.207 74.0796 697.567 76.7596 696.287 79.4796C695.007 82.1196 693.327 84.2796 691.247 85.9596C694.607 87.6396 697.167 90.0796 698.927 93.2796C700.767 96.4796 701.687 100.04 701.687 103.96C701.687 111.4 699.327 117.52 694.607 122.32C689.967 127.12 683.447 129.52 675.047 129.52H634.607V45.6396H671.687C679.527 45.6396 685.887 47.9996 690.767 52.7196C695.727 57.4396 698.207 63.6796 698.207 71.4396ZM670.127 64.7196H656.567V78.7596H670.127C672.127 78.7596 673.687 78.1196 674.807 76.8396C675.927 75.5596 676.527 73.9996 676.607 72.1596C676.687 70.1596 676.127 68.4396 674.927 66.9996C673.807 65.4796 672.207 64.7196 670.127 64.7196ZM673.367 96.5196H656.567V110.44H673.487C677.327 110.44 679.487 108.28 679.967 103.96C680.127 101.96 679.567 100.24 678.287 98.7996C677.087 97.2796 675.447 96.5196 673.367 96.5196Z" fill="white"/>
<path d="M594.542 86.6796L550.382 130.24H543.902V45.9996H565.862V87.0396L609.662 45.6396H616.502V130H594.542V86.6796Z" fill="white"/>
<path d="M490.908 65.2H470.268V46H532.668V65.2H512.148V130H490.908V65.2Z" fill="white"/>
<path d="M381.496 88.1202C381.496 81.1602 382.696 74.8802 385.096 69.2802C387.576 63.6802 390.856 59.1602 394.936 55.7202C399.016 52.2802 403.576 49.6802 408.616 47.9202C413.656 46.0802 418.936 45.1602 424.456 45.1602C430.536 45.1602 436.256 46.2002 441.616 48.2802C447.056 50.3602 451.856 53.8802 456.016 58.8402C460.256 63.8002 462.896 69.8402 463.936 76.9602H442.816C440.016 68.9602 433.896 64.9602 424.456 64.9602C418.136 64.9602 413.056 67.0802 409.216 71.3202C405.376 75.4802 403.456 81.0402 403.456 88.0002C403.456 94.2402 405.376 99.6002 409.216 104.08C413.136 108.56 418.216 110.8 424.456 110.8C429.176 110.8 433.176 109.68 436.456 107.44C439.736 105.2 441.936 101.88 443.056 97.4802H464.176C463.136 105.08 460.536 111.48 456.376 116.68C452.216 121.8 447.416 125.44 441.976 127.6C436.616 129.76 430.776 130.84 424.456 130.84C419.016 130.84 413.736 129.92 408.616 128.08C403.576 126.24 399.016 123.6 394.936 120.16C390.856 116.72 387.576 112.24 385.096 106.72C382.696 101.12 381.496 94.9202 381.496 88.1202Z" fill="white"/>
<path d="M370.522 46V65.08H340.042V77.08H368.122V96.28H340.042V109.96H371.602V130H318.082V46H370.522Z" fill="white"/>
<path d="M282.161 87.8796C282.161 78.0396 276.201 72.8796 264.281 72.3996V103.48C276.201 102.68 282.161 97.4796 282.161 87.8796ZM226.601 87.8796C226.601 97.4796 232.561 102.68 244.481 103.48V72.3996C232.561 72.8796 226.601 78.0396 226.601 87.8796ZM244.241 130.24V121.96C232.721 121.56 223.241 118.48 215.801 112.72C208.361 106.88 204.641 98.5996 204.641 87.8796C204.641 77.1596 208.321 68.8796 215.681 63.0396C223.121 57.1996 232.601 54.0396 244.121 53.5596V45.6396H264.641V53.5596C276.561 54.0396 286.121 57.0796 293.321 62.6796C300.521 68.2796 304.121 76.6796 304.121 87.8796C304.121 95.4796 302.281 101.88 298.601 107.08C294.921 112.2 290.201 115.92 284.441 118.24C278.761 120.48 272.121 121.72 264.521 121.96V130.24H244.241Z" fill="white"/>
<path d="M145.787 119.56H114.347L109.547 130H86.627V127L125.147 45.1602H135.227L173.387 127V130H150.707L145.787 119.56ZM130.067 80.9202L121.427 101.2H138.827L130.067 80.9202Z" fill="white"/>
<path d="M79.0186 130H57.0586V96.4H31.0186V130H9.05859V46H31.0186V76.36H57.0586V46H79.0186V130Z" fill="white"/>
</svg>
