<svg width="206" height="106" viewBox="0 0 206 106" fill="none" xmlns="http://www.w3.org/2000/svg">
<path d="M204.723 61.2967L204.102 66.8234L183.746 64.5343L182.254 77.7974L201.291 79.9381L200.67 85.4648L181.633 83.3241L180.132 96.6696L200.817 98.9957L200.196 104.522L173.407 101.51L178.264 58.3213L204.723 61.2967Z" fill="white" stroke="white"/>
<path d="M145.143 60.0405L147.126 97.888L166.836 96.8555L167.127 102.409L141.283 103.763L139.01 60.3618L145.143 60.0405Z" fill="white" stroke="white"/>
<path d="M117.582 60.1708C120.587 60.3679 123.075 61.0524 125.015 62.2546L125.014 62.2545C126.938 63.4321 128.348 64.9543 129.219 66.8237L129.376 67.1706C130.127 68.9137 130.434 70.7958 130.302 72.8087C130.179 74.6851 129.741 76.2559 128.957 77.4905C128.205 78.6979 127.244 79.6389 126.076 80.3031C125.298 80.7507 124.482 81.1043 123.628 81.3678C124.585 81.6601 125.523 82.1439 126.441 82.8119C127.773 83.7801 128.841 85.1057 129.653 86.7708C130.481 88.4691 130.805 90.4788 130.655 92.7779C130.51 94.9805 129.878 96.9443 128.749 98.6561C127.607 100.389 125.905 101.693 123.68 102.58C121.439 103.473 118.615 103.793 115.234 103.571L99.4258 102.534L102.27 59.1666L117.582 60.1708ZM105.918 97.3867L115.598 98.0215C118.91 98.2388 121.173 97.7391 122.516 96.655C123.919 95.5219 124.662 94.109 124.775 92.3923C124.863 91.0476 124.602 89.7901 123.993 88.6104L123.991 88.6083C123.385 87.4194 122.473 86.4375 121.24 85.6621L121.236 85.6599L121.236 85.659C120.017 84.8795 118.527 84.4224 116.747 84.3056L106.819 83.6545L105.918 97.3867ZM107.177 78.1877L116.195 78.7791C117.673 78.8761 119.009 78.6727 120.212 78.1794L120.214 78.1786C121.43 77.6859 122.405 76.9496 123.151 75.9695L123.153 75.9658C123.902 74.9993 124.33 73.8254 124.422 72.4231C124.535 70.6912 124.033 69.2009 122.91 67.9209L122.91 67.9189C121.823 66.6669 119.967 65.9008 117.218 65.7204L108.035 65.1181L107.177 78.1877Z" fill="white" stroke="white"/>
<path d="M91.4735 1.86041L91.6083 2.16764L106.7 36.5186L120.031 1.44652L120.151 1.13283L127.12 0.956005L128.223 44.403L122.415 44.5503L121.623 13.3211L109.689 44.5625L109.57 44.8762L104.258 45.011L104.123 44.7038L90.6207 14.1057L91.4131 45.3369L85.6054 45.4842L84.5031 2.03726L91.4735 1.86041Z" fill="white" stroke="white"/>
<path d="M49.1272 0.934006L47.6009 29.0919C47.4929 31.0855 47.8353 32.8649 48.6156 34.4427L48.7671 34.7326C49.5435 36.1624 50.6562 37.33 52.1155 38.2383L52.4122 38.4119C53.9198 39.2566 55.7419 39.7454 57.8944 39.8621C60.0469 39.9787 61.9112 39.6896 63.5014 39.0129L63.8161 38.8725C65.4821 38.0781 66.7734 36.9479 67.7036 35.4803L67.7036 35.4793C68.6505 33.9948 69.1836 32.262 69.2918 30.2676L70.818 2.10971L76.9516 2.44217L75.4029 31.0135C75.2414 33.9937 74.3924 36.634 72.8473 38.919L72.8464 38.918C71.3171 41.1882 69.2368 42.9301 66.6179 44.1432L66.6158 44.1451C63.9886 45.348 60.9714 45.8479 57.58 45.6641C54.1887 45.4802 51.2439 44.6571 48.7622 43.1773L48.7603 43.1763L49.0182 42.7472L48.7603 43.1753C46.2881 41.6864 44.4003 39.7303 43.1116 37.3082L43.1098 37.3052C41.8352 34.8676 41.2845 32.1522 41.4459 29.1729L42.9946 0.601601L49.1272 0.934006Z" fill="white" stroke="white"/>
<path d="M16.1211 1.84746L16.7414 1.76309C19.8118 1.37958 22.4686 1.56961 24.6919 2.36404L24.6909 2.36419C27.0462 3.19271 28.9164 4.54596 30.2785 6.42803C31.629 8.29409 32.4866 10.5064 32.8609 13.0504C33.2352 15.5943 33.049 17.9472 32.2879 20.0975C31.5209 22.2647 30.124 24.0773 28.1188 25.5329L28.116 25.5343C27.765 25.7863 27.3932 26.0218 27.0024 26.244L38.6915 41.7071L39.2002 42.3804L32.1627 43.4159L31.9843 43.1767L20.8924 28.2969C20.6374 28.3416 20.3784 28.3844 20.1154 28.4231L11.4209 29.7024L13.8356 46.1127L7.75941 47.0067L1.43254 4.00878L16.1211 1.84746ZM10.5994 24.119L19.1296 22.8638C21.3307 22.54 23.0073 21.9628 24.1936 21.1622L24.1945 21.1611C25.4001 20.3543 26.1853 19.362 26.5837 18.1859L26.5843 18.1838L26.6591 17.9537C27.0144 16.7884 27.0894 15.4519 26.8659 13.9325C26.6275 12.3124 26.1205 10.9649 25.3587 9.87432C24.6129 8.80671 23.5592 8.04474 22.1706 7.59442L22.1664 7.59306C20.7836 7.13259 18.9929 7.04633 16.7674 7.37376L8.31834 8.61698L10.5994 24.119Z" fill="white" stroke="white"/>
</svg>
