<svg width="595" height="117" viewBox="0 0 595 117" fill="none" xmlns="http://www.w3.org/2000/svg">
<path d="M538.631 27.6859H511.111V2.08594H594.311V27.6859H566.951V114.086H538.631V27.6859Z" fill="white"/>
<path d="M401.143 109.926L423.063 74.2459C412.183 66.7793 406.636 55.8993 406.423 41.6059C406.423 30.9393 409.943 21.7126 416.983 13.9259C424.023 6.03261 433.943 2.08594 446.743 2.08594H496.023V114.086H466.743V78.8859H451.383L432.183 114.086H401.143V109.926ZM446.903 55.0459H467.223V27.5259H446.903C442.956 27.5259 439.916 28.8059 437.783 31.3659C435.756 33.9259 434.743 37.1259 434.743 40.9659C434.743 44.8059 435.809 48.1126 437.943 50.8859C440.076 53.6593 443.063 55.0459 446.903 55.0459Z" fill="white"/>
<path d="M352.474 66.5659H331.994V88.4859H352.474C356.207 88.4859 359.087 87.4193 361.114 85.2859C363.247 83.0459 364.314 80.4326 364.314 77.4459C364.314 74.3526 363.247 71.7926 361.114 69.7659C359.087 67.6326 356.207 66.5659 352.474 66.5659ZM331.994 27.6859V42.2459H352.634C365.647 42.2459 375.567 45.4993 382.394 52.0059C389.327 58.5126 392.794 66.9393 392.794 77.2859C392.794 87.7393 389.274 96.4859 382.234 103.526C375.3 110.566 365.434 114.086 352.634 114.086H303.354V2.08594H383.834V27.6859H331.994Z" fill="white"/>
<path d="M285.332 58.0853C285.332 67.472 283.679 76.0053 280.372 83.6853C277.066 91.2587 272.639 97.392 267.092 102.085C261.652 106.779 255.572 110.352 248.852 112.805C242.132 115.259 235.092 116.485 227.732 116.485C213.866 116.272 201.599 112.059 190.932 103.845C180.266 95.5253 173.812 83.952 171.572 69.1253H156.852V114.085H127.572V2.08534H156.852V42.5653H172.212C174.346 33.2853 178.346 25.392 184.212 18.8853C190.079 12.272 196.746 7.47201 204.212 4.48534C211.786 1.39201 219.839 -0.101332 228.372 0.00533319C235.626 0.112005 242.612 1.44534 249.332 4.00534C256.052 6.45867 262.079 10.032 267.412 14.7253C272.852 19.312 277.172 25.392 280.372 32.9653C283.679 40.432 285.332 48.8053 285.332 58.0853ZM199.892 58.0853C199.892 67.792 202.666 75.3653 208.212 80.8053C213.759 86.1387 220.372 88.8053 228.052 88.8053C235.626 88.8053 242.186 86.1387 247.732 80.8053C253.279 75.3653 256.052 67.792 256.052 58.0853C256.052 48.592 253.226 41.232 247.572 36.0053C242.026 30.672 235.412 28.0053 227.732 28.0053C220.052 28.0053 213.492 30.672 208.052 36.0053C202.612 41.232 199.892 48.592 199.892 58.0853Z" fill="white"/>
<path d="M50.08 28.1659L45.76 79.5259C44.8 90.4059 42.7733 98.4593 39.68 103.686C36.6933 108.913 31.9467 112.326 25.44 113.926C19.04 115.419 10.56 115.259 0 113.446L0.48 92.4859C6.66667 93.0193 10.72 92.3793 12.64 90.5659C14.6667 88.7526 16 84.7526 16.64 78.5659L24.48 2.08594H103.52V114.086H74.4V28.1659H50.08Z" fill="white"/>
</svg>
