<svg width="594" height="108" viewBox="0 0 594 108" fill="none" xmlns="http://www.w3.org/2000/svg">
<path d="M594 13.8639H556.048V105.08H535.666V13.8639H497.713V2.91797H594V13.8639Z" fill="white"/>
<path d="M389.506 105.08L412.699 70.6369C405.671 67.8153 400.283 63.7288 396.534 58.3774C392.786 53.0261 390.912 46.4585 390.912 38.6747C390.912 33.0315 391.942 28.0207 394.004 23.6423C396.066 19.1666 399.017 15.4207 402.86 12.4045C406.702 9.29094 411.387 6.95581 416.916 5.39905C422.539 3.745 428.864 2.91797 435.893 2.91797H486.496V105.08H466.114V74.4315H435.893H433.362L412.699 105.08H389.506ZM435.893 13.8639C428.489 13.8639 422.773 15.9072 418.744 19.9937C414.714 23.9828 412.699 30.2099 412.699 38.6747C412.699 47.1396 414.714 53.4153 418.744 57.5018C422.773 61.4909 428.489 63.4855 435.893 63.4855H466.114V13.8639H435.893Z" fill="white"/>
<path d="M338.109 43.7828C345.325 43.7828 351.65 44.5126 357.085 45.972C362.521 47.4315 367.065 49.5234 370.72 52.2477C374.375 54.972 377.092 58.2315 378.873 62.0261C380.747 65.7234 381.684 69.8585 381.684 74.4315C381.684 79.0045 380.747 83.1883 378.873 86.9828C377.092 90.6801 374.375 93.891 370.72 96.6153C367.065 99.3396 362.521 101.431 357.085 102.891C351.65 104.35 345.325 105.08 338.109 105.08H286.1V2.91797H370.439V13.8639H306.482V43.7828H338.109ZM306.482 54.7288V94.1342H338.109C344.856 94.1342 350.151 92.4315 353.993 89.0261C357.929 85.5234 359.897 80.6585 359.897 74.4315C359.897 68.2045 357.929 63.3882 353.993 59.9828C350.151 56.4801 344.856 54.7288 338.109 54.7288H306.482Z" fill="white"/>
<path d="M215.075 108C207.672 108 200.831 106.978 194.552 104.935C188.274 102.892 182.745 99.8757 177.965 95.8865C173.28 91.8 169.485 86.8378 166.58 81C163.675 75.0649 161.894 68.2541 161.238 60.5676H144.089V105.081H123.707V2.91892H144.089V49.6216H161.098C161.566 41.6432 163.206 34.5892 166.017 28.4595C168.829 22.2324 172.577 17.027 177.263 12.8432C182.042 8.56216 187.618 5.35135 193.99 3.21081C200.456 1.07027 207.484 0 215.075 0C222.946 0 230.209 1.16757 236.862 3.5027C243.516 5.83783 249.232 9.29189 254.012 13.8649C258.791 18.4378 262.492 24.0811 265.116 30.7946C267.834 37.5081 269.193 45.2432 269.193 54C269.193 62.7568 267.834 70.4919 265.116 77.2054C262.492 83.9189 258.791 89.5622 254.012 94.1351C249.232 98.7081 243.516 102.162 236.862 104.497C230.209 106.832 222.946 108 215.075 108ZM215.075 10.2162C210.858 10.2162 206.781 11.0919 202.846 12.8432C199.003 14.5946 195.583 17.2703 192.584 20.8703C189.586 24.4703 187.196 29.0432 185.415 34.5892C183.635 40.0378 182.745 46.5081 182.745 54C182.745 61.4919 183.635 68.0108 185.415 73.5568C187.196 79.0054 189.586 83.5297 192.584 87.1297C195.583 90.7297 199.003 93.4054 202.846 95.1568C206.781 96.9081 210.858 97.7838 215.075 97.7838C219.292 97.7838 223.321 96.9081 227.163 95.1568C231.099 93.4054 234.567 90.7297 237.565 87.1297C240.564 83.5297 242.954 79.0054 244.734 73.5568C246.515 68.0108 247.405 61.4919 247.405 54C247.405 46.5081 246.515 40.0378 244.734 34.5892C242.954 29.0432 240.564 24.4703 237.565 20.8703C234.567 17.2703 231.099 14.5946 227.163 12.8432C223.321 11.0919 219.292 10.2162 215.075 10.2162Z" fill="white"/>
<path d="M0 96.3234H4.21697C7.02829 96.3234 9.51162 95.1072 11.667 92.6747C13.8223 90.2423 15.0874 86.1072 15.4622 80.2693L20.382 2.91797H104.019V105.08H83.6366V13.8639H39.3584L35.1414 80.2693C34.4855 89.8045 31.9084 96.7126 27.4103 100.994C23.0059 105.177 16.9147 107.269 9.13677 107.269C6.7003 107.269 4.54496 107.026 2.67075 106.54C1.63993 106.345 0.749684 106.102 0 105.81V96.3234Z" fill="white"/>
</svg>
