<svg width="594" height="116" viewBox="0 0 594 116" fill="none" xmlns="http://www.w3.org/2000/svg">
<path d="M569.698 3.16693C573.624 2.94697 576.806 3.49684 579.243 4.81654C581.68 6.13622 583.575 8.06077 584.929 10.5902C586.824 14.4393 588.652 18.2334 590.412 21.9725C592.172 25.7116 593.323 29.6707 593.865 33.8497C594.406 37.8088 593.323 40.8331 590.615 42.9226C587.907 44.9021 584.117 45.452 579.243 44.5722C577.753 44.3523 576.332 44.0773 574.978 43.7474C573.624 43.4175 572.202 43.0876 570.713 42.7576C569.901 42.5377 569.088 42.4277 568.276 42.4277C567.464 42.3177 566.651 42.2078 565.839 42.0978C563.131 41.7679 560.965 41.6579 559.34 41.7679C557.851 41.7679 556.7 42.0978 555.888 42.7576C555.075 43.3075 554.602 44.2423 554.466 45.562C554.331 46.8817 554.331 48.5863 554.466 50.6758C555.008 57.6042 555.549 64.5875 556.091 71.6259C556.632 78.5543 557.174 85.4826 557.716 92.411C557.851 94.6105 557.919 96.865 557.919 99.1744C557.919 101.484 557.783 103.738 557.512 105.938C557.106 109.677 555.008 111.711 551.217 112.041C547.697 112.371 544.921 110.997 542.89 107.917C541.401 105.608 540.386 103.243 539.844 100.824C539.303 98.4046 539.099 95.8752 539.235 93.2358C539.506 87.8471 539.709 82.5133 539.844 77.2346C539.98 71.8458 539.98 66.4021 539.844 60.9034C539.844 58.374 539.573 55.8996 539.032 53.4801C538.626 51.0607 538.219 48.5863 537.813 46.0569C537.407 43.9674 536.662 42.5377 535.579 41.7679C534.632 40.998 532.804 40.5032 530.096 40.2832C527.524 40.0633 524.951 39.9533 522.379 39.9533C519.806 39.8433 517.234 39.7883 514.662 39.7883C511.548 39.7883 508.908 39.6784 506.741 39.4584C504.711 39.1285 502.95 38.5786 501.461 37.8088C499.972 36.929 498.686 35.7743 497.603 34.3446C496.519 32.805 495.436 30.8804 494.353 28.571C492.999 25.8216 492.119 23.0173 491.713 20.1579C491.307 17.2986 490.765 14.4393 490.088 11.5799C489.412 8.39069 489.75 6.19121 491.104 4.98149C492.593 3.6618 495.436 3.00195 499.633 3.00195H535.579C535.579 3.00195 536.798 3.05695 539.235 3.16693C541.807 3.2769 544.854 3.38688 548.374 3.49685C551.894 3.49685 555.617 3.49685 559.543 3.49685C563.47 3.49685 566.854 3.38687 569.698 3.16693Z" fill="white"/>
<path d="M400.852 43.2523C400.987 42.7024 400.446 42.2075 399.227 41.7677C398.009 41.2178 396.655 40.393 395.166 39.2932C393.676 38.0835 392.322 36.4339 391.104 34.3444C389.885 32.1449 389.276 29.0656 389.276 25.1066C389.547 21.2575 390.765 18.0682 392.932 15.5388C395.233 12.8994 398.415 10.6999 402.477 8.94035C410.871 5.53115 419.4 3.5516 428.065 3.00173C436.866 2.34189 445.734 2.39688 454.669 3.16671C456.429 3.38665 458.189 3.55161 459.949 3.66159C461.71 3.77156 463.47 3.88153 465.23 3.99151C472.135 4.21145 476.332 6.96081 477.821 12.2396C478.498 14.4391 479.039 16.6385 479.446 18.838C479.987 21.0375 480.055 23.237 479.649 25.4365C479.242 34.2344 478.769 42.9774 478.227 51.6653C477.821 60.2433 477.618 68.8763 477.618 77.5643C477.753 80.4236 477.821 83.2279 477.821 85.9773C477.821 88.6167 477.686 91.366 477.415 94.2254C477.415 96.7548 477.009 99.0642 476.196 101.154C474.842 104.893 472.947 107.477 470.51 108.907C468.208 110.227 464.688 110.941 459.949 111.051C458.054 111.051 456.226 110.996 454.466 110.886C452.842 110.886 451.081 110.996 449.186 111.216C445.666 111.546 442.62 111.326 440.047 110.557C437.61 109.787 435.512 108.687 433.752 107.257C431.992 105.718 430.502 103.958 429.284 101.979C428.201 99.999 427.388 97.8545 426.847 95.545C426.034 92.0259 425.561 88.5067 425.425 84.9875C425.29 81.3584 425.087 77.7842 424.816 74.265C424.545 72.0655 424.41 69.8661 424.41 67.6666C424.545 65.3571 424.477 63.1026 424.207 60.9032C423.936 59.1436 423.191 57.9888 421.973 57.439C420.754 56.8891 419.197 57.0541 417.302 57.9339C415.948 58.5937 414.526 59.3085 413.037 60.0784C411.683 60.8482 410.668 61.728 409.991 62.7177C407.825 65.907 405.861 69.0962 404.101 72.2855C402.477 75.4748 401.8 78.9939 402.07 82.843C402.341 85.9223 402.544 88.9466 402.68 91.9159C402.815 94.8852 403.018 97.9095 403.289 100.989C403.424 101.869 403.492 102.803 403.492 103.793C403.492 104.673 403.492 105.553 403.492 106.432C403.357 108.522 402.747 110.117 401.664 111.216C400.581 112.426 399.092 113.141 397.196 113.361C395.301 113.581 393.473 113.251 391.713 112.371C389.953 111.601 388.735 110.337 388.058 108.577C386.974 105.938 386.027 103.298 385.214 100.659C384.537 97.9095 384.064 95.1601 383.793 92.4108C383.387 88.1218 383.184 83.7778 383.184 79.3788C383.319 74.9799 383.522 70.6359 383.793 66.3469C384.199 59.3085 387.651 53.5349 394.15 49.026C395.233 48.2561 396.519 47.4313 398.009 46.5515C399.633 45.5618 400.581 44.462 400.852 43.2523ZM422.785 23.6219C422.785 21.0925 422.582 19.2779 422.176 18.1782C421.77 16.9685 421.025 16.1986 419.942 15.8687C418.994 15.6488 417.505 15.7588 415.474 16.1986C413.579 16.6385 411.818 17.4634 410.194 18.6731C408.705 19.8828 407.621 21.5874 406.944 23.7869C406.403 25.9864 406.944 28.6807 408.569 31.87C409.381 33.4096 411.074 34.5643 413.646 35.3342C416.354 35.994 418.588 35.939 420.348 35.1692C421.296 34.7293 421.905 34.1794 422.176 33.5196C422.311 33.1897 422.379 32.5298 422.379 31.54C422.514 30.5503 422.582 29.5055 422.582 28.4058C422.582 27.1961 422.582 26.1513 422.582 25.2715C422.717 24.3917 422.785 23.8418 422.785 23.6219Z" fill="white"/>
<path d="M318.803 18.8378C316.095 18.6178 313.455 18.4529 310.883 18.3429C308.446 18.2329 305.873 18.1229 303.166 18.013C299.916 17.903 298.427 19.1677 298.698 21.8071C298.833 22.4669 298.901 23.1268 298.901 23.7866C298.901 24.4465 298.901 25.1063 298.901 25.7661C299.036 28.1856 299.51 29.7252 300.322 30.3851C301.135 31.0449 302.895 31.5398 305.603 31.8697C308.852 32.3096 312.101 32.6945 315.351 33.0244C318.6 33.2444 321.782 33.6293 324.896 34.1792C331.936 35.059 337.961 36.9285 342.97 39.7879C348.115 42.6472 352.38 45.7814 355.765 49.1906C359.149 52.4899 361.722 55.6791 363.482 58.7584C365.242 61.7277 366.325 63.8172 366.731 65.027C367.137 66.2367 367.476 68.1612 367.746 70.8006C368.017 73.44 368.22 76.2993 368.356 79.3786C368.491 82.3479 368.491 85.2072 368.356 87.9566C368.356 90.7059 368.153 92.7954 367.746 94.2251C366.257 98.1842 363.008 101.483 357.998 104.123C353.124 106.652 347.573 108.687 341.346 110.226C335.118 111.876 328.822 113.086 322.459 113.855C316.095 114.735 310.68 115.395 306.212 115.835C304.316 116.055 302.489 116.055 300.729 115.835C299.104 115.725 297.547 115.285 296.058 114.515C291.996 112.536 288.611 110.226 285.903 107.587C283.331 104.948 282.113 101.428 282.248 97.0294C282.519 87.7916 282.519 78.6638 282.248 69.6459C281.977 60.628 281.842 51.5551 281.842 42.4272C281.842 39.8978 281.977 37.4234 282.248 35.004C282.519 32.4746 282.654 29.9452 282.654 27.4158C282.79 24.5564 282.79 21.8071 282.654 19.1677C282.654 16.4183 282.654 13.614 282.654 10.7547C282.79 9.7649 282.857 8.77514 282.857 7.78537C282.993 6.68562 283.196 5.64087 283.466 4.6511C284.55 0.911977 287.19 -0.572672 291.387 0.19715C298.292 1.51684 305.197 2.28665 312.101 2.50661C319.006 2.61658 325.911 2.9465 332.816 3.49637C333.493 3.49637 334.102 3.55136 334.644 3.66133C335.321 3.66133 335.998 3.71632 336.675 3.82629C339.789 4.37616 342.226 5.64086 343.986 7.6204C345.881 9.48996 346.49 11.6894 345.813 14.2189C345.678 14.9887 345.204 15.7585 344.392 16.5283C343.579 17.2981 342.767 17.848 341.955 18.1779C339.518 18.9477 336.607 19.3327 333.222 19.3327C332.004 19.3327 330.582 19.3327 328.957 19.3327C327.333 19.2227 325.708 19.1127 324.083 19.0027C322.594 18.8928 321.308 18.8378 320.225 18.8378C319.277 18.8378 318.803 18.8378 318.803 18.8378ZM309.055 68.6561C313.388 68.3262 317.788 67.7213 322.256 66.8415C326.859 65.9617 331.394 64.697 335.862 63.0474C336.404 62.8275 337.216 62.3876 338.299 61.7277C339.112 61.0679 339.382 59.9131 339.112 58.2635C338.976 56.5039 338.096 55.0193 336.471 53.8096C335.253 52.8198 333.019 51.995 329.77 51.3351C326.656 50.5653 323.271 49.9605 319.615 49.5206C316.095 49.0807 312.778 48.8057 309.664 48.6958C306.55 48.4758 304.384 48.4208 303.166 48.5308C300.322 48.8607 298.969 50.0704 299.104 52.16C299.239 54.0295 299.375 55.8441 299.51 57.6037C299.646 59.3633 299.849 61.1778 300.119 63.0474C300.39 65.1369 301.135 66.5666 302.353 67.3364C303.572 67.9962 305.806 68.4361 309.055 68.6561Z" fill="white"/>
<path d="M138.376 30.7159C138.376 32.5855 138.309 34.5101 138.173 36.4896C138.173 38.4691 138.241 40.4487 138.376 42.4282C138.512 44.4077 139.053 45.7824 140.001 46.5522C140.949 47.2121 142.641 47.542 145.078 47.542C145.755 47.542 146.364 47.487 146.906 47.377C147.583 47.2671 148.26 47.2121 148.937 47.2121C152.186 47.2121 154.826 46.6622 156.857 45.5625C158.888 44.4627 160.445 42.4832 161.528 39.6239C163.424 34.675 165.996 30.0561 169.245 25.7671C172.63 21.4781 176.962 17.739 182.243 14.5497C186.44 12.0203 190.772 9.98579 195.24 8.44616C199.708 6.90652 204.514 5.86177 209.659 5.3119C211.013 5.20193 212.638 5.14693 214.533 5.14693C216.429 5.03696 218.324 5.03696 220.219 5.14693C222.25 5.25691 224.146 5.42188 225.906 5.64183C227.801 5.86177 229.494 6.19169 230.983 6.63159C237.346 8.50115 242.626 11.1405 246.823 14.5497C251.156 17.849 254.676 21.5331 257.384 25.6021C260.227 29.5612 262.326 33.7402 263.68 38.1392C265.169 42.4282 266.184 46.6072 266.726 50.6763C267.403 54.6353 267.741 58.2645 267.741 61.5637C267.877 64.8629 267.944 67.3923 267.944 69.1519C267.403 73.001 266.184 77.1251 264.289 81.524C262.529 85.813 259.821 89.9371 256.165 93.8961C252.645 97.7452 248.177 101.209 242.762 104.289C237.346 107.258 230.848 109.348 223.266 110.557C215.819 111.107 208.711 110.667 201.942 109.238C195.172 107.808 188.606 105.608 182.243 102.639C177.639 100.44 173.51 97.8002 169.855 94.7209C166.199 91.6417 163.491 87.9025 161.731 83.5036C160.377 80.2043 159.159 76.9051 158.076 73.6059C156.993 70.3067 156.451 66.8975 156.451 63.3783C156.451 62.0586 156.045 61.1238 155.232 60.5739C154.42 60.0241 153.269 59.6941 151.78 59.5842H149.749C146.771 59.5842 144.334 59.8041 142.438 60.244C140.678 60.5739 139.324 61.1788 138.376 62.0586C137.429 62.9384 136.819 64.1481 136.549 65.6877C136.413 67.2274 136.549 69.2069 136.955 71.6264C137.226 73.166 137.361 74.7606 137.361 76.4102C137.496 77.9499 137.7 79.4895 137.97 81.0291C138.241 83.9985 138.512 87.0227 138.783 90.102C139.053 93.0713 139.324 96.0406 139.595 99.0099C139.73 100.55 139.798 102.034 139.798 103.464C139.798 104.784 139.663 106.158 139.392 107.588C139.121 108.578 138.512 109.402 137.564 110.062C136.752 110.612 135.669 110.722 134.315 110.392C133.502 110.172 132.69 109.787 131.878 109.238C131.201 108.578 130.727 107.973 130.456 107.423C129.915 105.553 129.441 103.629 129.035 101.649C128.764 99.6698 128.561 97.6902 128.425 95.7107C128.155 90.322 127.951 84.9882 127.816 79.7095C127.816 74.3207 127.681 68.877 127.41 63.3783V62.7184C127.139 60.299 126.868 58.1545 126.598 56.2849C126.462 54.4154 126.327 52.7108 126.191 51.1711C126.191 49.5215 126.191 47.9269 126.191 46.3873C126.191 44.8476 126.259 43.198 126.394 41.4384C126.53 37.2594 126.733 33.1904 127.004 29.2313C127.275 25.1622 127.613 21.0932 128.019 17.0242C128.29 14.8247 129.102 12.8451 130.456 11.0856C131.133 10.0958 132.149 9.71086 133.502 9.93081C134.992 10.0408 135.939 10.7006 136.346 11.9104C137.293 13.9999 137.767 16.0344 137.767 18.0139C137.767 19.0037 137.767 20.2684 137.767 21.808C137.903 23.2377 137.97 24.6124 137.97 25.9321C138.106 27.2518 138.173 28.4065 138.173 29.3963C138.309 30.276 138.376 30.7159 138.376 30.7159ZM171.885 58.5944C171.885 61.1238 172.224 63.7082 172.901 66.3476C173.713 68.987 174.661 71.4614 175.744 73.7709C176.827 75.9703 177.843 77.8949 178.79 79.5445C179.873 81.0841 180.618 82.0189 181.024 82.3488C183.597 84.8782 186.846 86.6378 190.772 87.6276C194.834 88.5074 198.76 88.3424 202.551 87.1327C203.905 86.8028 205.191 86.1429 206.41 85.1532C207.628 84.0534 208.711 82.8437 209.659 81.524C210.607 80.2043 211.419 78.8297 212.096 77.4C212.773 75.9703 213.247 74.7606 213.518 73.7709C214.872 69.2619 215.481 64.753 215.345 60.244C215.21 55.7351 214.262 51.1711 212.502 46.5522C211.013 42.3732 208.847 38.909 206.004 36.1597C203.296 33.3003 199.505 31.1558 194.631 29.7262C189.892 28.4065 186.237 29.5612 183.664 33.1904C180.55 37.2594 177.843 41.2735 175.541 45.2325C173.239 49.0816 172.021 53.5356 171.885 58.5944Z" fill="white"/>
<path d="M81.0532 65.6858C81.0532 60.517 81.0532 55.4032 81.0532 50.3444C81.1886 45.2856 81.1886 40.1718 81.0532 35.003C81.0532 33.2434 80.8501 31.5388 80.444 29.8892C80.1732 28.1296 79.8347 26.425 79.4285 24.7754C78.7516 22.6859 77.3977 21.2562 75.3669 20.4864C73.4714 19.7166 71.3729 19.8815 69.0712 20.9813C66.0927 22.5209 63.5203 25.3252 61.354 29.3943C59.3232 33.3533 57.6308 38.0273 56.2769 43.416C54.923 48.6948 53.8399 54.2485 53.0276 60.0771C52.3506 65.9057 51.8091 71.3494 51.4029 76.4083C50.9967 81.3571 50.726 85.6461 50.5906 89.2752C50.4552 92.7944 50.3875 94.9389 50.3875 95.7087C50.3875 97.9082 49.9136 99.8328 48.9659 101.482C48.0182 103.022 46.7997 104.342 45.3104 105.441C43.8211 106.541 42.061 107.476 40.0302 108.246C38.1347 109.016 36.1716 109.73 34.1407 110.39C30.756 111.49 27.0328 112.37 22.9711 113.03C21.0756 113.36 18.9094 113.36 16.4724 113.03C14.1708 112.7 11.9368 112.095 9.77061 111.215C7.73977 110.445 5.91201 109.401 4.28734 108.081C2.79805 106.761 1.85032 105.331 1.44416 103.792C0.361039 97.8532 -0.112825 91.9696 0.0225649 86.141C0.157954 80.2024 0.902597 74.2638 2.25649 68.3251C2.93344 64.806 3.61039 61.2868 4.28734 57.7676C4.96428 54.2485 5.9797 50.8393 7.3336 47.54C9.09366 43.361 10.9891 39.237 13.02 35.1679C15.1862 30.9889 18.3678 27.3048 22.5649 24.1155C28.2513 19.7165 34.2084 15.8125 40.4363 12.4033C46.6643 8.99406 53.6368 6.6846 61.354 5.47489C66.905 4.48512 72.456 3.99023 78.0069 3.99023C83.5579 3.99023 89.1766 4.65008 94.863 5.96977C99.8724 7.06951 102.58 9.70889 102.986 13.8879C103.392 20.5963 103.799 27.2498 104.205 33.8482C104.746 40.4467 104.679 47.1551 104.002 53.9735C103.325 60.572 102.851 67.1704 102.58 73.7689C102.445 80.2574 103.189 86.8008 104.814 93.3993C105.22 95.2688 105.423 97.2484 105.423 99.3379C105.559 101.317 105.559 103.297 105.423 105.276C105.153 108.686 103.189 110.39 99.5339 110.39C95.6076 110.39 91.4782 109.95 87.1457 109.071C84.8441 108.521 83.4225 107.531 82.881 106.101C82.3394 104.562 82.0009 102.967 81.8656 101.317C81.7302 98.1282 81.5948 94.9939 81.4594 91.9146C81.324 88.7254 81.2563 85.5361 81.2563 82.3469C81.1209 79.4875 81.0532 76.7382 81.0532 74.0988C81.0532 71.3494 81.0532 68.5451 81.0532 65.6858Z" fill="white"/>
</svg>
