<svg width="594" height="110" viewBox="0 0 594 110" fill="none" xmlns="http://www.w3.org/2000/svg">
<path d="M575.64 107.416H520.231V100.731H532.526V9.26712H529.739C522.526 9.26712 517.281 11.0903 514.002 14.7367C510.723 18.3831 509.084 24.3086 509.084 32.2091V36.0074H501.871V2.58203H594V36.0074H586.787V32.2091C586.787 24.3086 584.984 18.3831 581.706 14.7367C578.427 11.0903 573.181 9.26712 565.968 9.26712H563.181V100.731H575.64V107.416Z" fill="white"/>
<path d="M429.558 30.6898C429.558 38.2865 431.198 44.0599 434.64 48.0102C438.083 51.9605 443.165 53.9356 449.886 53.9356H453.656V9.26712H449.886C443.001 9.26712 437.919 11.0903 434.64 14.7367C431.198 18.3831 429.558 23.7008 429.558 30.6898ZM434.148 88.5765C431.525 96.4771 428.083 101.947 424.149 105.137C420.214 108.48 414.641 109.999 407.755 109.999C399.723 109.999 393.985 108.176 390.543 104.378C386.936 100.579 385.297 93.7423 385.297 83.8666H392.346C392.346 89.1842 392.674 93.1345 393.33 95.5655C393.985 97.9964 395.297 99.2119 396.936 99.2119C398.247 99.2119 399.395 98.6041 400.379 97.0848C401.362 95.5655 402.51 92.8307 403.821 88.5765C405.624 81.8914 407.264 77.1815 408.903 74.1428C410.378 71.2561 412.346 68.8251 414.804 67.0019C416.772 65.3307 419.558 63.8113 423.165 62.5959C426.608 61.3804 432.017 59.861 439.23 58.0378C426.935 57.4301 417.263 54.6953 410.05 49.5295C402.838 44.5157 399.395 38.1345 399.395 30.5378C399.395 21.8776 403.657 15.0406 412.509 10.0268C421.362 5.16491 433.329 2.58203 448.574 2.58203H495.131V9.26712H483.983V100.731H495.131V107.416H443.984V100.731H453.656V60.4688H450.214C447.591 60.4688 445.296 61.3804 443.656 63.0517C441.853 64.8749 440.214 67.7616 438.902 72.0157C438.411 73.5351 437.755 76.118 436.771 79.7644C435.788 83.4108 434.804 86.4494 434.148 88.5765Z" fill="white"/>
<path d="M332.54 107.416H285.328V100.731H296.312V9.26712H285.328V2.58203H371.392V35.5517H364.179V32.2091C364.179 24.6124 361.884 18.8389 357.458 15.0406C352.868 11.2423 345.983 9.26712 336.802 9.26712H326.967V46.3389H334.671C348.769 46.3389 359.917 49.2257 368.277 54.8472C376.474 60.6207 380.736 68.2174 380.736 77.6373C380.736 87.361 376.474 94.8058 368.277 99.8196C360.081 104.985 348.114 107.416 332.54 107.416ZM350.737 77.4853C350.737 69.5848 349.097 63.6594 345.819 59.4052C342.54 55.1511 337.786 53.024 331.721 53.024H326.967V100.731H331.721C338.114 100.731 342.868 98.908 345.983 95.1097C349.097 91.4632 350.737 85.5378 350.737 77.4853Z" fill="white"/>
<path d="M275.316 55C275.316 71.105 270.726 84.1713 261.71 94.5028C252.694 104.834 240.727 110 225.809 110C211.219 110 199.416 105.138 190.564 95.2624C181.548 85.3867 176.794 72.7762 176.466 57.279H163.515V100.732H172.368V107.417H121.877V100.732H132.86V9.26796H121.877V2.58287H172.368V9.26796H163.515V50.5939H176.466C177.286 35.7044 182.204 23.5497 191.22 14.1298C200.072 4.70994 211.711 0 225.809 0C240.727 0 252.694 5.16574 261.71 15.4972C270.726 25.8287 275.316 39.047 275.316 55ZM225.809 7.14088C219.58 7.14088 215.154 10.9392 212.531 18.232C209.908 25.6768 208.596 37.9834 208.596 55C208.596 72.0166 209.908 84.3232 212.531 91.768C215.154 99.2127 219.58 102.859 225.809 102.859C232.039 102.859 236.465 99.2127 239.088 91.9199C241.711 84.6271 243.022 72.3204 243.022 55C243.022 37.8315 241.711 25.5249 239.088 18.232C236.465 10.9392 232.039 7.14088 225.809 7.14088Z" fill="white"/>
<path d="M71.1461 100.731V9.26712H47.3761C47.3761 23.7008 47.2121 35.2478 47.0482 43.7561C46.8843 52.4163 46.5564 59.7091 46.2286 65.7865C45.081 82.4992 42.6221 94.0461 38.8517 100.427C35.0812 106.809 28.8519 109.999 20.3275 109.999C14.4259 109.999 9.508 108.328 5.73759 104.833C1.80324 101.491 0 96.9329 0 91.1594C0 86.9052 1.31145 83.2588 3.93435 80.524C6.55724 77.7892 10.1637 76.2699 14.7538 76.2699C19.016 76.2699 22.4586 77.4853 25.0815 79.9163C27.7043 82.3472 29.0158 85.3859 29.0158 89.0323C29.0158 92.3749 27.8683 95.4135 25.7372 97.8445C23.4421 100.427 20.9832 101.795 18.3603 102.099C18.6881 102.402 19.1799 102.706 19.8357 102.858C20.4914 103.01 21.1471 103.01 21.9668 103.01C27.0486 103.01 30.819 99.8196 33.1141 93.2865C35.4091 86.9052 36.8845 75.5102 37.7041 59.2533C38.032 53.3279 38.1959 46.3389 38.3599 38.4384C38.3599 30.5378 38.5238 20.8141 38.5238 9.26712H24.0979V2.58203H112.621V9.26712H101.473V100.731H112.621V107.416H59.8348V100.731H71.1461Z" fill="white"/>
</svg>
