<svg width="788" height="199" viewBox="0 0 788 199" fill="none" xmlns="http://www.w3.org/2000/svg">
<path opacity="0.3" fill-rule="evenodd" clip-rule="evenodd" d="M412.079 20.2144C497.874 23.1751 593.32 9.89004 660.902 25.1207C732.148 41.1772 732.732 69.9706 745.938 95.4551C762.724 127.847 831.338 167.703 746.307 189.931C661.029 212.223 527.277 186.93 412.079 182.728C321.76 179.433 226.841 183.88 154.253 168.335C71.9067 150.7 15.2981 124.499 4.55678 95.4551C-7.34623 63.2696 -1.79478 23.2559 94.0541 5.5594C187.537 -11.7003 301.245 16.3896 412.079 20.2144Z" fill="#1736D2"/>
<path d="M129.916 95.5C129.916 100.833 128.233 105.2 124.866 108.6C121.533 111.967 117.216 113.65 111.916 113.65C109.55 113.65 107.3 113.267 105.166 112.5C103.066 111.733 101.166 110.617 99.4662 109.15C97.7995 107.683 96.4662 105.783 95.4662 103.45C94.4995 101.083 94.0162 98.4333 94.0162 95.5C94.0162 91.6333 94.8995 88.3 96.6662 85.5C98.4329 82.6667 100.65 80.6 103.316 79.3C106.016 77.9667 108.933 77.3 112.066 77.3C114.333 77.3 116.516 77.7 118.616 78.5C120.75 79.2667 122.65 80.3833 124.316 81.85C126.016 83.3167 127.366 85.2333 128.366 87.6C129.4 89.9333 129.916 92.5667 129.916 95.5ZM103.166 95.5C103.166 98.4667 104.033 100.8 105.766 102.5C107.5 104.167 109.566 105 111.966 105C114.333 105 116.383 104.167 118.116 102.5C119.883 100.8 120.766 98.4667 120.766 95.5C120.766 92.5333 119.9 90.2167 118.166 88.55C116.433 86.85 114.4 86 112.066 86C109.6 86 107.5 86.8333 105.766 88.5C104.033 90.1333 103.166 92.4667 103.166 95.5ZM165.713 95.45C165.713 91.35 163.23 89.2 158.263 89V101.95C163.23 101.617 165.713 99.45 165.713 95.45ZM142.563 95.45C142.563 99.45 145.047 101.617 150.013 101.95V89C145.047 89.2 142.563 91.35 142.563 95.45ZM149.913 113.1V109.65C145.113 109.483 141.163 108.2 138.063 105.8C134.963 103.367 133.413 99.9167 133.413 95.45C133.413 90.9833 134.947 87.5333 138.013 85.1C141.113 82.6667 145.063 81.35 149.863 81.15V77.85H158.413V81.15C163.38 81.35 167.363 82.6167 170.363 84.95C173.363 87.2833 174.863 90.7833 174.863 95.45C174.863 98.6167 174.097 101.283 172.563 103.45C171.03 105.583 169.063 107.133 166.663 108.1C164.297 109.033 161.53 109.55 158.363 109.65V113.1H149.913ZM214.731 95.5C214.731 100.833 213.047 105.2 209.681 108.6C206.347 111.967 202.031 113.65 196.731 113.65C194.364 113.65 192.114 113.267 189.981 112.5C187.881 111.733 185.981 110.617 184.281 109.15C182.614 107.683 181.281 105.783 180.281 103.45C179.314 101.083 178.831 98.4333 178.831 95.5C178.831 91.6333 179.714 88.3 181.481 85.5C183.247 82.6667 185.464 80.6 188.131 79.3C190.831 77.9667 193.747 77.3 196.881 77.3C199.147 77.3 201.331 77.7 203.431 78.5C205.564 79.2667 207.464 80.3833 209.131 81.85C210.831 83.3167 212.181 85.2333 213.181 87.6C214.214 89.9333 214.731 92.5667 214.731 95.5ZM187.981 95.5C187.981 98.4667 188.847 100.8 190.581 102.5C192.314 104.167 194.381 105 196.781 105C199.147 105 201.197 104.167 202.931 102.5C204.697 100.8 205.581 98.4667 205.581 95.5C205.581 92.5333 204.714 90.2167 202.981 88.55C201.247 86.85 199.214 86 196.881 86C194.414 86 192.314 86.8333 190.581 88.5C188.847 90.1333 187.981 92.4667 187.981 95.5ZM229.578 112.95H220.428V77.95C220.461 77.95 223.028 77.95 228.128 77.95C233.261 77.9167 235.845 77.9167 235.878 77.95C239.845 77.95 242.945 79.2667 245.178 81.9C247.411 84.5 248.495 87.5667 248.428 91.1C248.428 94.5667 247.311 97.5667 245.078 100.1C242.878 102.633 239.811 103.9 235.878 103.9H229.578V112.95ZM229.428 95.95H235.878C237.011 95.95 237.928 95.45 238.628 94.45C239.328 93.4167 239.678 92.2167 239.678 90.85C239.678 89.5167 239.345 88.3667 238.678 87.4C238.011 86.4 237.078 85.9 235.878 85.9H229.428V95.95ZM270.438 93.05L284.288 77.9H287.538V113H278.388V96.85L270.938 104.65H269.888L262.438 96.85V113H253.288V77.9H256.538L270.438 93.05ZM316.136 94.95L297.736 113.1H295.036V78H304.186V95.1L322.436 77.85H325.286V113H316.136V94.95ZM338.58 86H329.98V78H355.98V86H347.43V113H338.58V86ZM369.561 78V88.45H376.011C377.811 88.45 379.461 88.7333 380.961 89.3C382.461 89.8333 383.694 90.5833 384.661 91.55C385.661 92.4833 386.494 93.5667 387.161 94.8C387.861 96.0333 388.278 97.3333 388.411 98.7C388.578 100.033 388.578 101.383 388.411 102.75C388.278 104.083 387.861 105.367 387.161 106.6C386.494 107.833 385.661 108.933 384.661 109.9C383.694 110.833 382.461 111.583 380.961 112.15C379.461 112.717 377.811 113 376.011 113H360.661V78H369.561ZM376.011 96.5H369.561V104.95H376.011C376.978 104.95 377.794 104.667 378.461 104.1C379.128 103.5 379.528 102.783 379.661 101.95C379.794 101.117 379.778 100.3 379.611 99.5C379.444 98.6667 379.028 97.9667 378.361 97.4C377.728 96.8 376.944 96.5 376.011 96.5ZM405.339 78H434.439V113H425.289V86.25H414.489V113H405.339V78ZM451.16 112.95H442.01V77.95C442.043 77.95 444.61 77.95 449.71 77.95C454.843 77.9167 457.427 77.9167 457.46 77.95C461.427 77.95 464.527 79.2667 466.76 81.9C468.993 84.5 470.077 87.5667 470.01 91.1C470.01 94.5667 468.893 97.5667 466.66 100.1C464.46 102.633 461.393 103.9 457.46 103.9H451.16V112.95ZM451.01 95.95H457.46C458.593 95.95 459.51 95.45 460.21 94.45C460.91 93.4167 461.26 92.2167 461.26 90.85C461.26 89.5167 460.927 88.3667 460.26 87.4C459.593 86.4 458.66 85.9 457.46 85.9H451.01V95.95ZM496.72 78V85.95H484.02V90.95H495.72V98.95H484.02V104.65H497.17V113H474.87V78H496.72ZM516.733 85.85L515.133 101.1C514.967 103.267 514.433 104.717 513.533 105.45H523.833V85.85H516.733ZM501.183 105.25H502.483C503.783 105.217 504.667 104.9 505.133 104.3C505.6 103.667 505.933 102.5 506.133 100.8L508.783 78H532.933V105.25H536.433V117.1H529.033V113H508.133V117.1H501.183V105.25ZM549.595 86.85H541.545C541.411 83.7833 542.428 81.4333 544.595 79.8C546.795 78.1667 549.561 77.35 552.895 77.35C556.528 77.35 559.378 78.3667 561.445 80.4C563.545 82.4 564.595 84.7667 564.595 87.5C564.595 88.7 564.328 89.9 563.795 91.1C563.261 92.3 562.495 93.2667 561.495 94C564.895 95.8 566.595 98.6833 566.595 102.65C566.595 105.883 565.411 108.533 563.045 110.6C560.711 112.633 557.345 113.65 552.945 113.65C549.011 113.65 545.911 112.617 543.645 110.55C541.411 108.45 540.295 105.467 540.295 101.6H548.245C548.245 102.933 548.695 104.017 549.595 104.85C550.495 105.683 551.611 106.1 552.945 106.1C554.378 106.1 555.495 105.717 556.295 104.95C557.095 104.15 557.495 103.2 557.495 102.1C557.495 101.033 557.095 100.117 556.295 99.35C555.495 98.55 554.378 98.15 552.945 98.15H550.245V90.85H552.845C553.911 90.85 554.745 90.5333 555.345 89.9C555.945 89.2667 556.245 88.5333 556.245 87.7C556.245 86.7667 555.911 86.0167 555.245 85.45C554.611 84.85 553.828 84.55 552.895 84.55C552.028 84.55 551.261 84.7667 550.595 85.2C549.928 85.6 549.595 86.15 549.595 86.85ZM592.192 108.65H579.092L577.092 113H567.542V111.75L583.592 77.65H587.792L603.692 111.75V113H594.242L592.192 108.65ZM585.642 92.55L582.042 101H589.292L585.642 92.55ZM628.051 113L620.401 99.5C619.701 99.6 618.251 99.65 616.051 99.65V113H606.901V78H616.051V91.7C618.751 91.7 620.451 91.5167 621.151 91.15C621.885 90.7833 622.451 90.1167 622.851 89.15C623.251 88.15 623.735 86.45 624.301 84.05C624.901 81.65 626.201 79.85 628.201 78.65C630.235 77.45 633.151 77.25 636.951 78.05V84.2C634.585 84.0333 633.168 84.8667 632.701 86.7C631.501 91.0667 630.068 94.1667 628.401 96C629.268 97.3333 630.835 99.8 633.101 103.4C635.368 106.967 637.135 109.717 638.401 111.65V113H628.051ZM663.334 108.65H650.234L648.234 113H638.684V111.75L654.734 77.65H658.934L674.834 111.75V113H665.384L663.334 108.65ZM656.784 92.55L653.184 101H660.434L656.784 92.55ZM685.044 86.85H676.994C676.861 83.7833 677.877 81.4333 680.044 79.8C682.244 78.1667 685.011 77.35 688.344 77.35C691.977 77.35 694.827 78.3667 696.894 80.4C698.994 82.4 700.044 84.7667 700.044 87.5C700.044 88.7 699.777 89.9 699.244 91.1C698.711 92.3 697.944 93.2667 696.944 94C700.344 95.8 702.044 98.6833 702.044 102.65C702.044 105.883 700.861 108.533 698.494 110.6C696.161 112.633 692.794 113.65 688.394 113.65C684.461 113.65 681.361 112.617 679.094 110.55C676.861 108.45 675.744 105.467 675.744 101.6H683.694C683.694 102.933 684.144 104.017 685.044 104.85C685.944 105.683 687.061 106.1 688.394 106.1C689.827 106.1 690.944 105.717 691.744 104.95C692.544 104.15 692.944 103.2 692.944 102.1C692.944 101.033 692.544 100.117 691.744 99.35C690.944 98.55 689.827 98.15 688.394 98.15H685.694V90.85H688.294C689.361 90.85 690.194 90.5333 690.794 89.9C691.394 89.2667 691.694 88.5333 691.694 87.7C691.694 86.7667 691.361 86.0167 690.694 85.45C690.061 84.85 689.277 84.55 688.344 84.55C687.477 84.55 686.711 84.7667 686.044 85.2C685.377 85.6 685.044 86.15 685.044 86.85Z" fill="white"/>
</svg>
