<svg width="757" height="53" viewBox="0 0 757 53" fill="none" xmlns="http://www.w3.org/2000/svg">
<path d="M6.14218 6.93763C9.16167 6.20322 12.9824 6.14323 16.5042 6.40927C17.7412 6.50709 18.9871 6.64325 20.1426 6.80683C21.49 6.9998 20.9262 8.40215 21.8923 8.59406C23.6997 8.97478 25.4066 8.17501 27.2039 8.66533C27.8172 8.83319 27.2357 11.0249 27.8774 11.152C31.3594 11.836 34.5229 11.0628 37.9954 11.2828C55.1462 12.3766 71.5991 12.3251 88.6583 12.4794C94.3765 12.5254 101.099 14.1615 106.959 13.051C107.614 12.9207 107.138 11.0606 107.256 10.9003C109.13 8.44375 108.64 12.2632 109.969 12.7093C115.36 14.4645 121.184 14.3897 126.077 13.4602C128.203 13.0575 125.897 9.41714 128.151 11.4208C128.308 11.556 127.842 13.5727 128.444 13.7608C129.83 14.1826 132.316 13.7236 133.333 13.8406C135.313 14.0751 135.642 14.0417 137.54 13.988C140.22 13.9285 143.136 14.8053 145.923 14.2431C146.512 14.1174 145.646 12.104 146.579 11.7189C147.52 11.334 150.041 11.4092 150.859 11.8601C151.702 12.3102 151.414 13.9307 151.574 14.2933C152.89 17.3554 155.6 12.9392 155.973 12.8183C162.644 10.7456 168.604 12.9788 174.812 12.7434C179.69 12.5535 184.66 11.563 189.299 11.5086C190.161 11.4998 191.009 11.5153 191.846 11.5463C196.151 11.7207 200.213 12.3424 204.696 12.026C205.243 11.9893 204.517 9.60757 205.186 9.55781C212.339 9.02985 219.563 9.04635 226.852 10.4267C227.589 10.567 226.717 12.7094 227.458 12.9758C231.964 14.5612 238.996 18.5 241.392 9.22097C244.433 9.48003 247.983 9.73501 250.744 11.4996C252.516 12.6355 250.905 14.9899 253.007 13.9393C253.482 13.705 252.789 11.7115 253.507 11.5125C256.571 10.6749 259.809 11.2255 262.763 10.0889C263.363 9.85297 263.139 8.05379 263.3 7.72332C264.659 5.04526 267.221 9.31779 267.762 9.61692C271.922 11.8434 274.697 10.8264 278.439 10.7653C279.303 10.7522 278.205 8.36076 279.034 8.26113C283.356 7.77638 287.855 7.84309 292.074 8.78738C293.019 9.00306 292.222 11.0948 292.677 11.3035C294.684 12.1986 295.002 8.28508 296.937 9.06803C297.345 9.22808 297.173 11.0027 297.253 11.1946C298.498 14.206 299.366 9.85684 299.66 9.75225C303.376 8.33258 305.81 12.7689 309.395 12.019C309.823 11.9248 308.784 9.71826 309.99 9.59014C318.123 8.72035 326.499 9.07825 334.6 10.622C335.836 10.8597 335.011 12.5665 335.095 12.7713C336.452 15.9691 337.137 11.6082 337.534 11.4327C340.666 10.1608 343.759 13.7067 345.78 8.47615C359.313 9.86031 372.634 6.55853 386.195 10.7869C386.365 10.8355 386.126 12.98 386.466 13.0677C390.565 14.1462 389.688 10.8503 392.268 6.71099C392.918 5.67151 395.139 10.511 395.334 10.8648C396.043 12.1688 395.442 15.3665 395.674 15.6163C397.592 17.5745 396.977 7.07642 399.491 6.99878C399.57 7.01398 399.297 8.9577 399.513 9.14375C400.186 9.72813 400.819 8.94026 401.474 9.58725C402.966 11.085 403.631 16.1754 405.759 13.1387C406.029 12.7448 405.423 6.79735 407.654 7.01346C408.542 7.1047 412.474 6.88683 413.594 7.24053C414.71 7.59386 414.008 9.53678 414.089 9.61764C417.144 12.0699 416.045 13.1556 417.651 16.8718C419.258 20.5737 418.581 11.6517 419.162 10.6366C419.735 9.62459 421.957 11.6567 422.511 12.3696C423.063 13.0828 422.436 14.3226 422.921 14.7212C426.136 17.3238 424.168 10.2463 425.161 8.798C427.504 5.36903 429.604 11.939 431.87 12.5226C432.484 12.6802 431.943 11.1857 432.481 11.0287C434.606 10.4273 435.983 12.4563 438.346 10.4903C438.732 10.1699 440.57 6.12942 441.924 9.01593C442.116 9.43226 441.653 11.0982 442.572 11.4416C443.944 11.9573 446.404 12.247 447.853 11.6525C448.923 11.2128 447.604 8.52814 448.99 9.33376C449.607 9.69356 448.53 11.3177 449.685 11.8609C450.833 12.4041 453.731 12.2501 454.837 12.1631C455.939 12.0749 455.275 10.0287 455.36 9.88706C455.88 9.0749 457.935 8.01941 458.122 8.01645C467.449 7.49432 476.262 10.7217 485.331 9.30874C486.046 9.20075 485.506 7.03822 485.614 6.99931C488.046 6.01687 486.274 11.8587 488.047 13.7461C487.672 9.33695 488.709 10.1075 490.431 9.57329C491.261 9.31229 490.756 7.61536 490.828 7.43812C491.994 4.80519 492.956 8.13511 493.199 8.815C494.089 11.316 494.885 8.30788 495.489 9.97938C496.09 11.6383 494.887 14.1577 496.536 14.0786C496.954 12.4844 495.61 8.38831 496.844 7.68282C501.488 5.01492 510.496 8.00135 514.313 8.22939C518.116 8.45748 519.339 8.13071 521.573 8.63878C525.614 9.55745 524.057 6.53422 526.512 5.06012C528.977 3.58595 527.974 11.1623 528.38 12.7733C528.78 14.3838 529.119 12.7046 529.584 13.583C530.048 14.4611 529.13 15.5905 530.172 15.8956C531.22 16.2001 533.942 13.2373 534.255 11.5318C534.92 7.91853 533.55 4.18509 536.3 5.4324C536.458 5.50656 536.008 7.50402 536.611 7.68745C541.401 9.07915 546.353 9.03323 551.168 10.248C551.83 10.4182 551.305 12.6409 551.691 12.7649C555.677 14.064 554.161 10.3843 556.209 6.19075C555.879 11.7036 557.17 15.034 560.175 14.9814C561.982 14.9517 561.603 12.5588 562.725 10.833C563.061 10.3127 564.388 11.9256 564.588 10.7895C565.25 7.07573 563.925 2.97677 567.078 4.53462C567.217 4.60898 566.84 6.64229 567.315 6.75136C570.381 7.4664 570.652 3.59372 573.905 3.03369C576.46 2.59423 581.099 4.82005 584.045 5.12023C584.157 11.3045 586.89 9.81057 587.896 5.51604C589.808 5.63676 591.866 5.33757 593.71 5.87526C594.346 6.05836 593.982 7.86006 594.067 8.05123C595.373 11.0509 596.081 6.88044 596.486 6.70631C600.883 5.00068 604.599 8.04179 608.77 4.85012C608.918 4.73523 609.042 0.433736 610.269 3.53743C610.349 3.7515 608.997 5.74506 611.005 5.83977C613.009 5.93497 616.824 8.13172 619.542 6.06374C620.199 5.56579 621.798 2.03175 623.238 4.71738C623.43 5.08216 623.266 6.31945 623.547 6.99749C624.456 9.15762 624.797 4.80384 625.898 8.46355C626.998 12.1231 629.15 14.8265 631.885 12.2035C631.974 12.127 632.536 8.668 633.415 8.69777C634.818 8.74826 636.828 9.40915 638.292 9.34565C638.993 9.31401 638.484 7.19022 638.605 7.14773C643.287 5.81827 646.703 7.62856 651.796 8.31304C652.733 8.44267 655.303 5.45508 657.161 7.70807C659.2 10.1743 657.47 20.7193 661.926 18.0937C663.725 17.0431 665.665 3.672 669.147 10.474C675.486 8.58688 681.439 11.9514 687.768 9.33329C688.052 9.21719 688.858 5.47807 689.535 5.50972C690.541 5.56388 691.14 7.2842 691.86 7.3785C694.882 7.81725 697.57 6.25593 700.468 6.4061C701.567 6.45937 701.233 8.26481 702.545 8.32855C703.855 8.39063 704.662 6.00295 706.467 7.09478C707.831 7.92737 709.306 12.7205 711.101 13.2338C711.035 8.46712 712.26 8.53112 714.398 7.21263C714.808 6.95695 714.315 5.31103 714.506 5.10454C715.284 4.22741 716.064 5.58113 716.8 4.62943C716.979 4.40079 716.942 2.77335 717.086 2.49458C718.306 0.0622516 720.531 3.6632 720.913 4.29032C722.378 6.67161 722.972 4.53701 724.071 5.46018C725.168 6.38327 723.601 7.6193 724.867 8.16268C727.493 9.28646 730.818 8.9306 733.456 8.93178C734.508 8.9222 733.73 6.77017 733.879 6.71836C736.04 6.10669 738.294 8.35601 739.378 3.99577C741.196 15.1407 740.656 2.87415 743.823 5.02696C744.072 5.20127 744.531 10.4828 743.614 11.2857C742.697 12.0878 741.228 10.4739 739.96 11.7209C739.66 12.0136 738.032 17.0203 737.8 17.3273C735.978 19.7268 735.491 11.8287 735.379 11.3973C734.113 6.74314 732.1 12.144 731.541 12.529C728.985 14.2926 726.743 13.2425 724.601 14.5102C723.199 15.33 723.205 20.5123 722.084 20.385C718.355 19.9649 716.864 12.7769 713.535 19.1384C712.821 20.4953 713.726 26.1343 710.909 21.7591C710.732 21.4832 708.619 17.4677 707.537 20.0752C707.401 20.4039 707.452 22.0533 707.264 22.1972C706.008 23.1293 705.117 21.8391 703.74 22.5074C702.363 23.1758 700.712 24.1609 699.105 23.6459C698.137 23.3382 696.821 20.2993 696.341 19.5597C694.985 17.4285 693.696 21.021 692.816 18.4189C691.93 15.8037 693.406 11.7533 691.229 10.1084C691.27 14.3961 691.212 18.7998 691.205 23.1132C686.536 23.0927 681.913 21.8352 677.252 22.1551C676.674 22.199 677.33 24.4864 676.713 24.5929C674.11 25.032 671.769 23.4538 669.065 24.1841C666.973 24.7581 664.733 27.2621 662.551 27.9382C661.07 23.0721 657.855 24.8282 655.477 24.4463C654.643 24.3147 654.662 23.0034 654.061 22.5927C651.794 21.0747 652.955 25.379 652.363 26.0781C649.817 29.0623 649.317 19.2601 646.23 19.5892C646.066 19.6033 644.21 24.8878 643.943 25.2212C642.251 27.3934 643.602 23.4095 642.495 23.0539C640.474 22.4041 639.05 21.1945 636.749 22.7916C636.078 23.2644 634.53 26.5692 633.134 24.0858C632.95 23.7606 632.998 22.0297 632.855 21.9325C630.257 20.317 630.339 25.7491 628.932 27.6291C627.524 29.5088 625.167 25.8236 624.678 24.7561C623.401 21.9949 625.563 23.5359 625.62 23.2598C626.292 19.9744 624.665 20.5825 623.403 20.342C623.071 15.0228 621.327 15.3916 622.096 20.114C622.182 20.6297 623.144 20.1058 623.403 20.342C622.449 25.5967 620.541 26.3199 618.279 21.498C617.22 19.238 618.084 16.544 615.092 17.6048C613.735 18.0838 614.367 21.735 613.187 22.7685C610.488 25.1266 606.773 21.8086 603.935 22.4278C602.904 22.6526 603.97 24.6309 603.268 24.8537C601.403 25.4513 599.705 23.9922 597.843 24.8166C597.674 24.8938 598.15 26.9827 597.565 27.026C593.141 27.3948 589.216 26.1589 584.563 26.2529C582.315 26.2993 578.339 27.5711 576.015 27.4036C572.004 27.1253 566.92 24.212 563.502 25.0514C561.27 25.59 561.823 27.6771 560.902 29.1359C559.124 31.9634 555.707 27.0857 555.244 26.3285C555.23 26.3034 557.142 25.7535 556.084 24.7041C555.422 22.4737 555.266 26.3182 555.244 26.3285C554.941 25.8395 551.084 25.4715 550.317 25.8953C549.905 26.1266 550.195 28.1106 549.979 28.1936C544.85 30.122 539.696 30.7748 534.458 29.9923C534.365 29.9547 534.44 27.7241 534.223 27.6635C531.184 26.7591 529.288 29.5392 526.835 31.2276C524.378 32.9154 522.382 32.4305 520.796 28.65C518.926 29.185 516.182 27.572 514.604 26.5908C513.028 25.6096 512.932 29.9503 512.797 30.0399C508.582 32.9052 506.036 30.495 501.598 30.2357C499.483 30.1051 495.356 30.8526 493.081 31.3922C491.279 31.8261 490.159 30.8416 488.512 31.539C488.289 31.6322 488.573 33.5555 488.506 33.6318C486.714 35.9942 487.472 31.2506 487.064 30.419C485.586 27.3948 484.681 25.7876 482.351 27.2972C481.814 27.6431 480.418 34.482 479.435 34.9079C478.157 35.4491 478.574 33.0002 477.239 33.6289C477.125 33.6805 477.192 35.182 476.357 35.1398C472.46 34.9641 468.152 34.2136 464.122 34.4808C463.571 34.5115 464.347 36.8737 463.552 36.9574C459.82 37.348 455.746 37.3777 452.031 36.3693C451.121 36.1134 451.638 34.4288 451.428 33.9391C450.139 30.9768 448.566 35.3809 448.288 35.4721C441.67 37.7588 436.468 33.9659 429.682 36.042C429.314 36.163 426.599 40.9147 425.214 36.948C425.119 36.6842 423.744 32.6247 422.719 35.4578C422.656 35.635 423.497 37.721 422.13 37.5459C420.771 37.3711 418.597 38.8443 416.634 36.5829C416.013 35.8706 414.477 31.826 412.791 35.1355C412.681 35.3664 410.151 42.8122 409.025 37.7594C408.843 36.9276 408.849 31.5453 406.815 34.3647C406.427 34.9111 407.195 36.0889 406.154 36.8692C404.552 38.0718 402.389 36.694 400.414 39.1499C400.073 39.5844 398.677 43.2787 397.393 40.544C397.192 40.1157 397.496 38.3099 396.855 38.1278C393.807 37.2533 390.696 38.5474 387.624 37.3954C386.536 36.9909 386.999 34.0723 385.857 33.3279C384.729 32.5832 382.402 31.9038 381.257 33.2653C380.11 34.6275 381.543 39.2143 379.778 39.6374C372.122 41.4743 364.451 38.9882 356.749 38.8229C355.612 38.7978 356.602 40.4246 354.933 40.5064C348.819 40.8137 338.088 42.6925 332.667 39.3381C328.244 36.6538 333.634 34.3426 330.287 33.2975C328.674 32.7995 327.12 38.2296 326.742 38.4106C323.046 40.2452 320.424 37.9414 317.078 38.7761C316.381 38.9494 317.137 41.1077 316.542 41.2311C314.513 41.672 312.348 40.7651 310.423 41.0029C309.559 41.1145 309.77 42.7742 308.971 42.6704C307.059 42.4411 305.363 41.7934 303.476 40.2905C303.304 40.1535 304.369 38.0477 302.972 38.0141C300.691 37.9662 297.755 36.5172 295.182 38.1887C294.418 38.6913 294.505 42.4967 292.752 39.9217C292.385 39.384 292.686 34.8017 290.87 38.8098C290.55 39.4764 287.523 44.9009 285.758 41.5214C285.3 40.6318 284.087 36.9281 283.161 37.5454C283.036 37.6432 283.614 39.6705 282.838 39.8945C280.104 40.6486 277.234 40.5215 274.471 41.2502C273.734 41.4488 274.907 43.5281 273.807 43.7566C270.785 44.3879 266.829 43.9757 263.824 43.4099C262.71 43.1974 263.418 41.4212 263.332 41.2332C261.938 38.1744 261.313 42.3838 260.894 42.6416C258.309 44.1878 256.167 42.2893 253.696 42.8904C253.014 43.051 253.565 45.0306 253.435 45.2129C252.077 46.9974 253.013 43.3797 252.107 43.0138C249.567 41.9768 246.808 42.2276 244.334 42.5642C243.422 42.6909 244.535 44.9705 243.701 45.0579C238.688 45.6219 233.665 45.5669 228.802 44.453C227.878 44.2393 228.395 42.4384 228.19 42.0379C226.777 39.2352 224.995 43.1827 224.569 43.5674C222.632 45.3236 221.811 43.7741 220.08 44.1272C211.61 45.8667 200.99 45.2215 193.029 44.8582C192.954 44.855 192.879 44.8519 192.804 44.8487C182.06 44.4005 174.04 42.9968 163.847 43.8216C163.213 43.8714 163.943 46.2169 163.398 46.2901C156.333 47.1294 149.216 46.4778 142.177 47.444C141.606 47.5189 142.521 49.7322 141.609 49.9278C139.682 50.347 137.185 50.3254 135.234 49.6864C134.28 49.3791 135.462 47.4003 134.504 47.1304C132.326 46.4953 129.828 46.4379 127.572 46.8925C126.609 47.091 128.167 49.3273 126.91 49.4063C118.288 49.9945 109.922 50.7535 101.095 48.1763C100.489 47.9994 99.7237 43.3565 98.4855 44.3108C98.4489 45.6107 98.5246 47.1343 98.5465 48.5209C86.0814 49.8452 73.6385 48.8392 61.1321 49.2956C60.5897 49.3164 61.6639 51.7353 60.6187 51.7878C54.7244 52.0871 49.0241 53.1185 42.9052 51.058C42.3181 50.856 42.3072 46.4905 40.5828 47.2673C40.297 47.4066 37.6645 48.1704 37.0715 49.161C36.9919 49.3097 37.6016 51.3046 36.7808 51.4222C31.8192 52.0829 26.7394 52.0147 21.6469 51.1942C20.8124 51.0586 21.5012 48.8287 20.9087 48.7131C20.6074 48.6551 20.3101 48.6113 20.0165 48.5794C16.1175 48.1779 12.1371 49.7981 8.32195 48.2742C5.56814 47.1656 6.26373 43.356 4.56412 39.7924C4.33032 39.2902 2.65771 39.3298 2.40997 37.1955C1.85533 31.831 2.2118 25.8919 1.51055 20.1814C1.46341 19.565 0.871541 19.6271 0.839466 19.4312C0.836421 19.3824 0.909268 19.3174 0.973891 19.2271C1.04157 19.1369 1.01699 19.0204 1.00308 18.8628C0.983211 18.7054 1.04395 18.5073 1.00744 18.2552C0.969828 18.0026 0.770048 17.7009 0.749694 17.3284C0.500663 17.1464 1.84208 16.063 2.14996 15.0203C2.34624 14.3023 1.72728 12.1628 2.18119 11.2284C2.62933 10.2949 3.35013 12.0719 4.16053 10.9497C4.95944 9.815 4.37389 7.37462 6.14218 6.93763ZM507.451 22.2083C505.947 20.1681 505.952 27.798 507.462 25.9293C507.535 25.8299 507.528 22.3083 507.451 22.2083ZM681.781 16.0837C679.804 12.7737 678.654 17.7543 680.055 20.3141C681.455 22.8712 682.383 17.087 681.781 16.0837ZM701.251 13.0824C698.976 10.4926 698.932 21.3133 701.228 19.0619C701.361 18.9346 701.384 13.2328 701.251 13.0824ZM10.9495 38.2301C10.9232 38.1307 9.74722 38.1276 9.73079 38.2296C9.30755 40.6944 11.6502 40.6998 10.9495 38.2301ZM720.565 9.86788C719.837 8.42464 717.907 10.1681 718.811 11.9628C719.539 13.4065 721.471 11.6632 720.565 9.86788ZM432.04 16.2422C432.013 16.1292 431.173 16.0514 431.208 16.6931C431.325 18.7597 432.475 18.1419 432.04 16.2422ZM753.515 8.82325C748.632 8.55232 745.43 -0.295713 750.762 0.563936C751.728 0.719446 748.771 3.46958 750.016 4.24058C752.294 5.64495 753.623 -0.00376176 755.991 2.93716C756.42 3.47558 753.794 8.85855 753.506 8.83594C753.509 8.83171 753.512 8.82748 753.515 8.82325ZM506.357 13.0749C506.325 12.9749 505.164 12.9125 505.139 13.0132C504.581 15.4515 506.92 15.5787 506.357 13.0749ZM383.176 12.9631C383.104 12.7502 380.394 12.6298 380.312 12.8303C379.02 16.83 384.498 17.0853 383.176 12.9631ZM584.096 5.28384C585.29 2.81328 586.795 2.48391 587.89 5.51309C586.628 5.38625 585.362 5.39803 584.096 5.28384Z" fill="white"/>
</svg>
