<svg width="2200" height="447" viewBox="0 0 2200 447" fill="none" xmlns="http://www.w3.org/2000/svg">
<g opacity="0.3" filter="url(#filter0_fg_282_79)">
<path fill-rule="evenodd" clip-rule="evenodd" d="M1166.37 22.3149C1355.39 24.4773 1527.22 41.0173 1688.09 59.8505C1845.23 78.2451 1999.9 99.2514 2086.66 130.049C2172.16 160.401 2193.26 196.189 2168.04 230.225C2144.47 262.022 2017.48 286.028 1949.24 315.443C1870.98 349.182 1899.66 396.157 1736.29 416.338C1574.51 436.323 1358.7 415.993 1166.37 412.151C993.548 408.699 810.44 411.966 662.143 394.883C515.051 377.94 455.561 344.922 354.354 318.615C240.695 289.071 59.7033 266.25 28.6741 230.225C-3.25417 193.156 84.307 155.799 186.335 123.546C287.549 91.5499 433.463 65.3799 606.756 47.4798C777.854 29.8065 971.631 20.0871 1166.37 22.3149Z" fill="#9D2E52"/>
</g>
<path d="M310.041 274L265.439 215.193H259.899V274H220.41V128.545H259.899V183.375H265.012L306.774 128.545H356.49L301.092 198.432L359.615 274H310.041ZM391.238 275.989V245.307H398.34C402.507 245.307 405.797 244.975 408.212 244.312C410.674 243.602 412.568 242.371 413.894 240.619C415.267 238.82 416.427 236.311 417.374 233.091L418.794 228.83L364.249 128.545H404.59L434.988 187.636L458.283 128.545H498.056L448.056 242.182C445.31 248.148 442.042 253.711 438.255 258.872C434.467 263.986 429.756 268.129 424.121 271.301C418.487 274.426 411.503 275.989 403.169 275.989H391.238ZM644.363 128.545V274H605.442V159.795H556.294V274H517.374V128.545H644.363ZM669.629 128.545H709.118V204.682H710.254L761.958 128.545H795.481V274H755.993V197.58H755.14L702.583 274H669.629V128.545ZM810.183 160.364V128.545H936.603V160.364H892.853V274H853.933V160.364H810.183ZM976.465 177.409H1006.58C1018.84 177.409 1029.54 179.374 1038.68 183.304C1047.87 187.234 1054.99 192.774 1060.06 199.923C1065.17 207.073 1067.71 215.477 1067.66 225.136C1067.71 234.795 1065.17 243.295 1060.06 250.634C1054.99 257.973 1047.87 263.702 1038.68 267.821C1029.54 271.94 1018.84 274 1006.58 274H952.317V128.545H991.806V243.034H1006.58C1011.36 243.034 1015.36 242.253 1018.58 240.69C1021.85 239.128 1024.31 236.973 1025.97 234.227C1027.67 231.481 1028.5 228.356 1028.45 224.852C1028.5 219.881 1026.65 215.761 1022.91 212.494C1019.17 209.18 1013.73 207.523 1006.58 207.523H976.465V177.409ZM1129.98 274V128.545H1232.25V160.364H1169.47V177.409H1184.24C1196.46 177.409 1207.13 179.374 1216.27 183.304C1225.46 187.234 1232.58 192.774 1237.65 199.923C1242.76 207.073 1245.32 215.477 1245.32 225.136C1245.32 234.795 1242.76 243.295 1237.65 250.634C1232.58 257.973 1225.46 263.702 1216.27 267.821C1207.13 271.94 1196.46 274 1184.24 274H1129.98ZM1169.47 243.034H1184.24C1188.98 243.034 1192.95 242.253 1196.17 240.69C1199.44 239.128 1201.9 236.973 1203.56 234.227C1205.26 231.481 1206.12 228.356 1206.12 224.852C1206.12 219.881 1204.25 215.761 1200.51 212.494C1196.77 209.18 1191.34 207.523 1184.24 207.523H1169.47V243.034ZM1259.28 128.545H1298.77V204.682H1299.9L1351.61 128.545H1385.13V274H1345.64V197.58H1344.79L1292.23 274H1259.28V128.545ZM1398.98 274V243.602L1402.96 243.034C1407.79 242.277 1411.79 240.193 1414.96 236.784C1418.18 233.328 1420.64 227.859 1422.35 220.378C1424.1 212.849 1425.21 202.598 1425.68 189.625L1427.96 128.545H1533.35V274H1495.29V159.227H1464.32L1462.05 204.966C1461.19 221.917 1458.92 235.435 1455.23 245.52C1451.54 255.605 1445.93 262.873 1438.4 267.324C1430.87 271.775 1420.95 274 1408.64 274H1398.98ZM1552.05 274V128.545H1656.88V160.364H1591.54V185.364H1651.48V217.182H1591.54V242.182H1656.6V274H1552.05ZM1672.49 160.364V128.545H1798.91V160.364H1755.16V274H1716.24V160.364H1672.49ZM1838.77 177.409H1868.88C1881.15 177.409 1891.85 179.374 1900.99 183.304C1910.17 187.234 1917.3 192.774 1922.36 199.923C1927.48 207.073 1930.01 215.477 1929.96 225.136C1930.01 234.795 1927.48 243.295 1922.36 250.634C1917.3 257.973 1910.17 263.702 1900.99 267.821C1891.85 271.94 1881.15 274 1868.88 274H1814.62V128.545H1854.11V243.034H1868.88C1873.67 243.034 1877.67 242.253 1880.89 240.69C1884.15 239.128 1886.62 236.973 1888.27 234.227C1889.98 231.481 1890.81 228.356 1890.76 224.852C1890.81 219.881 1888.96 215.761 1885.22 212.494C1881.48 209.18 1876.03 207.523 1868.88 207.523H1838.77V177.409ZM1979.68 128.545V274H1940.19V128.545H1979.68Z" fill="#FFFDFC"/>
<defs>
<filter id="filter0_fg_282_79" x="0.9" y="0.9" width="2198.2" height="445.2" filterUnits="userSpaceOnUse" color-interpolation-filters="sRGB">
<feFlood flood-opacity="0" result="BackgroundImageFix"/>
<feBlend mode="normal" in="SourceGraphic" in2="BackgroundImageFix" result="shape"/>
<feGaussianBlur stdDeviation="10.55" result="effect1_foregroundBlur_282_79"/>
<feTurbulence type="fractalNoise" baseFrequency="1 1" numOctaves="3" seed="2445" />
<feDisplacementMap in="effect1_foregroundBlur_282_79" scale="22.799999237060547" xChannelSelector="R" yChannelSelector="G" result="displacedImage" width="100%" height="100%" />
<feMerge result="effect2_texture_282_79">
<feMergeNode in="displacedImage"/>
</feMerge>
</filter>
</defs>
</svg>
